<svg width="28" height="28" viewBox="0 0 28 28" fill="none" xmlns="http://www.w3.org/2000/svg">
<path d="M13.9993 2.33331C18.5097 2.33331 22.166 5.98966 22.166 10.5C22.166 10.6324 22.1629 10.7641 22.1567 10.895C24.8803 11.8533 26.8327 14.4487 26.8327 17.5C26.8327 21.366 23.6987 24.5 19.8327 24.5H8.16602C4.30002 24.5 1.16602 21.366 1.16602 17.5C1.16602 14.4487 3.11839 11.8533 5.84206 10.895C5.83583 10.7641 5.83268 10.6324 5.83268 10.5C5.83268 5.98966 9.48903 2.33331 13.9993 2.33331ZM13.9993 4.66665C10.7777 4.66665 8.16602 7.27832 8.16602 10.5C8.16602 10.595 8.16827 10.6897 8.17276 10.784L8.25541 12.5194L6.61648 13.096C4.76448 13.7476 3.49935 15.5037 3.49935 17.5C3.49935 20.0773 5.58869 22.1666 8.16602 22.1666H19.8327C22.41 22.1666 24.4993 20.0773 24.4993 17.5C24.4993 14.9216 22.411 12.8333 19.8327 12.8333C17.7712 12.8333 16.022 14.17 15.4042 16.0238L13.1901 15.2858C14.1166 12.5049 16.741 10.5 19.8327 10.5C19.8327 7.27832 17.221 4.66665 13.9993 4.66665Z" fill="#101010"/>
</svg>
