<svg width="28" height="28" viewBox="0 0 28 28" fill="none" xmlns="http://www.w3.org/2000/svg">
<path d="M13.9993 4.10058L4.09979 14.0001L13.9993 23.8996L23.8988 14.0001L13.9993 4.10058ZM14.8243 1.62571L26.3737 13.1752C26.8293 13.6307 26.8293 14.3695 26.3737 14.8251L14.8243 26.3745C14.3687 26.8301 13.6299 26.8301 13.1744 26.3745L1.62492 14.8251C1.1693 14.3695 1.1693 13.6307 1.62492 13.1752L13.1744 1.62571C13.6299 1.17009 14.3687 1.17009 14.8243 1.62571ZM15.166 11.6668V8.75008L19.2493 12.8334L15.166 16.9168V14.0001H11.666V17.5001H9.33262V12.8334C9.33262 12.1891 9.85496 11.6668 10.4993 11.6668H15.166Z" fill="#101010"/>
</svg>
