<svg width="28" height="28" viewBox="0 0 28 28" fill="none" xmlns="http://www.w3.org/2000/svg">
<path d="M19.3622 1.20943L26.7665 8.6138C26.9944 8.84161 26.9944 9.21095 26.7665 9.43876C26.6791 9.52614 26.5663 9.58352 26.4442 9.60262L24.7244 9.87149L18.1248 3.27182L18.3722 1.53941C18.4179 1.22048 18.7133 0.998873 19.0322 1.04444C19.1572 1.06228 19.2729 1.12018 19.3622 1.20943ZM5.3606 23.506C9.70338 19.6193 14.6881 18.4568 20.1108 17.0654L20.6316 12.3783L15.618 7.36465L10.9308 7.88544C9.53945 13.3082 8.37703 18.2929 4.49026 22.6357L2.86304 21.0084C6.16287 17.1586 7.40031 12.8963 9.05022 5.74669L16.4749 4.92174L23.0746 11.5214L22.2495 18.946C15.1 20.596 10.8376 21.8334 6.98783 25.1332L5.3606 23.506ZM11.5251 16.4711C10.6139 15.56 10.6139 14.0825 11.5251 13.1713C12.4364 12.26 13.9137 12.26 14.8249 13.1713C15.7362 14.0825 15.7362 15.56 14.8249 16.4711C13.9137 17.3824 12.4364 17.3824 11.5251 16.4711Z" fill="#101010"/>
</svg>
