<svg width="28" height="28" viewBox="0 0 28 28" fill="none" xmlns="http://www.w3.org/2000/svg">
<path d="M7.44603 6.96277C9.24232 5.52587 11.5208 4.66666 14 4.66666C16.4792 4.66666 18.7577 5.52587 20.554 6.96277L22.2496 5.26716L23.8995 6.91707L22.2039 8.61268C23.6407 10.409 24.5 12.6875 24.5 15.1667C24.5 20.9657 19.799 25.6667 14 25.6667C8.20101 25.6667 3.5 20.9657 3.5 15.1667C3.5 12.6875 4.35922 10.409 5.79612 8.61268L4.10051 6.91707L5.75042 5.26716L7.44603 6.96277ZM14 23.3333C18.5103 23.3333 22.1667 19.677 22.1667 15.1667C22.1667 10.6563 18.5103 6.99999 14 6.99999C9.48968 6.99999 5.83333 10.6563 5.83333 15.1667C5.83333 19.677 9.48968 23.3333 14 23.3333ZM15.1667 14H18.6667L12.8333 21.5833V16.3333H9.33333L15.1667 8.74439V14ZM9.33333 1.16666H18.6667V3.49999H9.33333V1.16666Z" fill="#101010"/>
</svg>
