<svg width="125" height="23" viewBox="0 0 125 23" fill="none" xmlns="http://www.w3.org/2000/svg">
<path d="M22.018 7.99242C22.6661 8.64844 22.6661 9.71204 22.018 10.368L10.2431 22.2866C9.59498 22.9428 8.54419 22.9428 7.89608 22.2866L0.486087 14.7862C-0.162029 14.1302 -0.162029 13.0667 0.486087 12.4107L12.2611 0.492018C12.9092 -0.164006 13.96 -0.164006 14.608 0.492018L22.018 7.99242Z" fill="#101010"/>
<path d="M24.7843 10.368C25.4323 9.71204 25.4323 8.64844 24.7843 7.99242L19.3356 2.47736L21.2972 0.492018C21.9453 -0.164006 22.9961 -0.164006 23.6441 0.492018L31.0541 7.99242C31.7022 8.64844 31.7022 9.71204 31.0541 10.368L19.2792 22.2866C18.6312 22.9428 17.5804 22.9428 16.932 22.2866L14.9707 20.3013L24.7843 10.368Z" fill="#101010"/>
<path d="M46.1181 19.1283C45.207 19.1283 44.3519 19.0442 43.5529 18.876C42.7539 18.7218 42.046 18.4625 41.4292 18.098C40.8265 17.7335 40.3499 17.2569 39.9994 16.6682C39.649 16.0654 39.4738 15.3295 39.4738 14.4604C39.4738 14.4043 39.4738 14.3413 39.4738 14.2712C39.4738 14.2011 39.4808 14.145 39.4948 14.1029H43.1324C43.1324 14.145 43.1254 14.2011 43.1113 14.2712C43.1113 14.3272 43.1113 14.3763 43.1113 14.4183C43.1113 14.8669 43.2235 15.2314 43.4478 15.5117C43.6861 15.7781 44.0155 15.9743 44.436 16.1005C44.8565 16.2126 45.3472 16.2687 45.9079 16.2687C46.2163 16.2687 46.5036 16.2547 46.77 16.2266C47.0363 16.1986 47.2746 16.1495 47.4849 16.0794C47.6951 16.0094 47.8774 15.9253 48.0316 15.8271C48.1998 15.715 48.3189 15.5888 48.389 15.4486C48.4731 15.2945 48.5152 15.1192 48.5152 14.923C48.5152 14.6006 48.389 14.3342 48.1367 14.124C47.8984 13.9137 47.569 13.7385 47.1484 13.5983C46.7419 13.4581 46.2793 13.325 45.7607 13.1988C45.242 13.0726 44.7024 12.9395 44.1416 12.7993C43.5809 12.6591 43.0413 12.4839 42.5226 12.2736C42.0039 12.0634 41.5344 11.797 41.1138 11.4746C40.7073 11.1522 40.3779 10.7527 40.1256 10.2761C39.8873 9.7855 39.7681 9.19675 39.7681 8.50989C39.7681 7.75293 39.9293 7.10111 40.2517 6.55442C40.5741 5.99371 41.0157 5.53814 41.5764 5.18769C42.1511 4.83725 42.81 4.58493 43.5529 4.43074C44.2958 4.26252 45.0878 4.17842 45.9289 4.17842C46.7559 4.17842 47.5269 4.26252 48.2418 4.43074C48.9707 4.59895 49.6156 4.86529 50.1763 5.22975C50.737 5.58019 51.1715 6.02876 51.4799 6.57544C51.8023 7.10812 51.9705 7.75293 51.9845 8.50989V8.76221H48.368V8.61502C48.368 8.29261 48.2769 8.01226 48.0946 7.77396C47.9264 7.52164 47.6671 7.32539 47.3167 7.18521C46.9662 7.03102 46.5317 6.95392 46.013 6.95392C45.4944 6.95392 45.0528 7.00299 44.6883 7.10111C44.3379 7.19923 44.0645 7.33941 43.8683 7.52164C43.6861 7.70387 43.595 7.92114 43.595 8.17346C43.595 8.48185 43.7141 8.73417 43.9524 8.93042C44.2047 9.12667 44.5412 9.29488 44.9617 9.43506C45.3822 9.57523 45.8518 9.7084 46.3705 9.83456C46.8891 9.9467 47.4218 10.0729 47.9685 10.213C48.5292 10.3392 49.0689 10.5074 49.5875 10.7177C50.1062 10.9139 50.5758 11.1733 50.9963 11.4957C51.4168 11.804 51.7462 12.1895 51.9845 12.6521C52.2369 13.1147 52.363 13.6754 52.363 14.3342C52.363 15.4837 52.0897 16.4089 51.543 17.1097C51.0103 17.8106 50.2674 18.3223 49.3142 18.6447C48.375 18.9671 47.3096 19.1283 46.1181 19.1283ZM57.5622 19.1283C56.8473 19.1283 56.2375 19.0232 55.7329 18.8129C55.2422 18.5886 54.8708 18.2592 54.6185 17.8246C54.3802 17.3901 54.261 16.8644 54.261 16.2477V10.2971H52.8102V7.79499H54.3661L55.081 4.5569H57.6883V7.79499H59.8541V10.2971H57.6883V15.4066C57.6883 15.7991 57.7654 16.1005 57.9196 16.3107C58.0738 16.521 58.3542 16.6261 58.7607 16.6261H59.8541V18.7708C59.6718 18.8269 59.4405 18.883 59.1602 18.9391C58.8939 19.0091 58.6205 19.0582 58.3402 19.0862C58.0598 19.1143 57.8005 19.1283 57.5622 19.1283ZM64.0124 19.1283C63.5498 19.1283 63.0942 19.0792 62.6457 18.9811C62.2111 18.897 61.8116 18.7428 61.4472 18.5185C61.0967 18.2802 60.8164 17.9578 60.6061 17.5513C60.3958 17.1448 60.2907 16.6331 60.2907 16.0164C60.2907 15.2174 60.4589 14.5655 60.7953 14.0609C61.1318 13.5563 61.6154 13.1638 62.2462 12.8834C62.891 12.589 63.6619 12.3858 64.5591 12.2736C65.4702 12.1615 66.4865 12.1054 67.6079 12.1054V11.4116C67.6079 11.0891 67.5449 10.8228 67.4187 10.6125C67.2925 10.3883 67.1033 10.22 66.851 10.1079C66.6127 9.98175 66.2903 9.91867 65.8838 9.91867C65.5193 9.91867 65.1969 9.96072 64.9165 10.0448C64.6502 10.1289 64.4469 10.2551 64.3068 10.4233C64.1666 10.5775 64.0965 10.7667 64.0965 10.991V11.1803H60.7322C60.7182 11.1102 60.7112 11.0541 60.7112 11.012C60.7112 10.956 60.7112 10.8859 60.7112 10.8018C60.7112 10.1429 60.9145 9.56822 61.321 9.0776C61.7415 8.58698 62.3373 8.20851 63.1082 7.94217C63.8792 7.67583 64.8114 7.54267 65.9048 7.54267C66.9281 7.54267 67.8182 7.66883 68.5752 7.92114C69.3461 8.17346 69.9489 8.55895 70.3834 9.0776C70.832 9.59626 71.0563 10.2761 71.0563 11.1172V15.8482C71.0563 16.0865 71.1194 16.2757 71.2455 16.4159C71.3857 16.556 71.5539 16.6261 71.7502 16.6261H72.4651V18.7498C72.3109 18.8199 72.0656 18.897 71.7291 18.9811C71.4067 19.0792 71.0142 19.1283 70.5516 19.1283C70.075 19.1283 69.6545 19.0652 69.2901 18.9391C68.9396 18.8269 68.6452 18.6657 68.4069 18.4554C68.1827 18.2312 68.0285 17.9718 67.9444 17.6775H67.7972C67.5308 17.9578 67.2154 18.2101 66.851 18.4344C66.5005 18.6587 66.087 18.8269 65.6104 18.9391C65.1478 19.0652 64.6152 19.1283 64.0124 19.1283ZM65.295 16.7523C65.6314 16.7523 65.9398 16.7032 66.2202 16.6051C66.5005 16.507 66.7388 16.3738 66.9351 16.2056C67.1453 16.0234 67.3065 15.8061 67.4187 15.5538C67.5449 15.3015 67.6079 15.0281 67.6079 14.7337V13.9978C66.8089 13.9978 66.1221 14.0539 65.5473 14.166C64.9726 14.2782 64.531 14.4534 64.2227 14.6917C63.9143 14.93 63.7601 15.2314 63.7601 15.5958C63.7601 15.8622 63.8232 16.0865 63.9493 16.2687C64.0895 16.4369 64.2717 16.5631 64.496 16.6472C64.7203 16.7173 64.9866 16.7523 65.295 16.7523ZM73.0372 18.876V7.79499H75.8758L76.1281 9.49814H76.2753C76.4435 9.11966 76.6468 8.78323 76.8851 8.48886C77.1374 8.18047 77.4388 7.94217 77.7892 7.77396C78.1537 7.60575 78.5532 7.52164 78.9877 7.52164C79.24 7.52164 79.4713 7.54968 79.6816 7.60575C79.8919 7.6478 80.0461 7.69686 80.1442 7.75293V10.7597H79.0508C78.6163 10.7597 78.2308 10.8228 77.8943 10.949C77.5719 11.0611 77.3056 11.2433 77.0953 11.4957C76.8851 11.734 76.7309 12.0283 76.6328 12.3788C76.5346 12.7292 76.4856 13.1357 76.4856 13.5983V18.876H73.0372ZM84.5905 19.1283C83.6513 19.1283 82.8383 18.918 82.1514 18.4975C81.4645 18.077 80.9389 17.4392 80.5744 16.5841C80.21 15.729 80.0277 14.6356 80.0277 13.3039C80.0277 12.0003 80.21 10.9279 80.5744 10.0869C80.9529 9.2318 81.4786 8.59399 82.1514 8.17346C82.8243 7.75293 83.6163 7.54267 84.5274 7.54267C84.962 7.54267 85.3755 7.59173 85.768 7.68985C86.1745 7.78798 86.5319 7.94217 86.8403 8.15244C87.1627 8.3627 87.4361 8.62203 87.6604 8.93042H87.7865V3.65275H91.2349V18.876H88.4173L88.165 17.341H88.0178C87.6393 17.9438 87.1557 18.3924 86.567 18.6867C85.9782 18.9811 85.3194 19.1283 84.5905 19.1283ZM85.6628 16.4369C86.1675 16.4369 86.574 16.3248 86.8824 16.1005C87.2048 15.8622 87.4361 15.5328 87.5763 15.1122C87.7304 14.6777 87.8075 14.173 87.8075 13.5983V13.0937C87.8075 12.6731 87.7655 12.2877 87.6814 11.9372C87.5973 11.5868 87.4711 11.2854 87.3029 11.0331C87.1347 10.7808 86.9104 10.5845 86.6301 10.4443C86.3637 10.3042 86.0413 10.2341 85.6628 10.2341C85.1442 10.2341 84.7237 10.3392 84.4012 10.5495C84.0929 10.7597 83.8686 11.0681 83.7284 11.4746C83.5882 11.8811 83.5181 12.3858 83.5181 12.9885V13.7245C83.5181 14.3132 83.5882 14.8108 83.7284 15.2174C83.8686 15.6239 84.0929 15.9323 84.4012 16.1425C84.7237 16.3388 85.1442 16.4369 85.6628 16.4369ZM98.38 19.1283C97.1464 19.1283 96.0881 18.918 95.2049 18.4975C94.3358 18.077 93.663 17.4392 93.1864 16.5841C92.7238 15.715 92.4925 14.6286 92.4925 13.325C92.4925 12.0213 92.7238 10.942 93.1864 10.0869C93.663 9.2318 94.3358 8.59399 95.2049 8.17346C96.0881 7.75293 97.1464 7.54267 98.38 7.54267C99.6275 7.54267 100.686 7.75293 101.555 8.17346C102.438 8.59399 103.111 9.2318 103.574 10.0869C104.05 10.942 104.288 12.0213 104.288 13.325C104.288 14.6286 104.05 15.715 103.574 16.5841C103.111 17.4392 102.438 18.077 101.555 18.4975C100.686 18.918 99.6275 19.1283 98.38 19.1283ZM98.38 16.6261C98.9547 16.6261 99.4173 16.514 99.7677 16.2897C100.132 16.0654 100.391 15.743 100.546 15.3225C100.714 14.8879 100.798 14.3553 100.798 13.7245V12.9465C100.798 12.3157 100.714 11.783 100.546 11.3485C100.391 10.9139 100.132 10.5915 99.7677 10.3813C99.4173 10.157 98.9547 10.0448 98.38 10.0448C97.8192 10.0448 97.3567 10.157 96.9922 10.3813C96.6418 10.5915 96.3824 10.9139 96.2142 11.3485C96.06 11.783 95.9829 12.3157 95.9829 12.9465V13.7245C95.9829 14.3553 96.06 14.8879 96.2142 15.3225C96.3824 15.743 96.6418 16.0654 96.9922 16.2897C97.3567 16.514 97.8192 16.6261 98.38 16.6261ZM105.524 18.876V7.79499H108.363L108.615 9.37198H108.762C109.014 8.9935 109.316 8.66408 109.666 8.38373C110.031 8.10337 110.43 7.89311 110.865 7.75293C111.299 7.61275 111.762 7.54267 112.253 7.54267C113.01 7.54267 113.654 7.69686 114.187 8.00525C114.72 8.29962 115.126 8.7552 115.407 9.37198H115.554C115.806 8.9935 116.107 8.66408 116.458 8.38373C116.822 8.10337 117.222 7.89311 117.656 7.75293C118.105 7.61275 118.568 7.54267 119.044 7.54267C119.815 7.54267 120.467 7.68985 121 7.98422C121.532 8.26458 121.939 8.69913 122.219 9.28787C122.514 9.8626 122.661 10.5985 122.661 11.4957V18.876H119.212V12.0213C119.212 11.7129 119.177 11.4536 119.107 11.2433C119.037 11.0191 118.939 10.8368 118.813 10.6966C118.687 10.5425 118.525 10.4303 118.329 10.3602C118.133 10.2901 117.923 10.2551 117.698 10.2551C117.334 10.2551 117.005 10.3532 116.71 10.5495C116.43 10.7317 116.213 10.984 116.058 11.3064C115.904 11.6148 115.827 11.9793 115.827 12.3998V18.876H112.379V12.0213C112.379 11.7129 112.344 11.4536 112.274 11.2433C112.203 11.0191 112.105 10.8368 111.979 10.6966C111.853 10.5425 111.692 10.4303 111.496 10.3602C111.299 10.2901 111.089 10.2551 110.865 10.2551C110.5 10.2551 110.171 10.3532 109.877 10.5495C109.596 10.7317 109.372 10.984 109.204 11.3064C109.05 11.6148 108.972 11.9793 108.972 12.3998V18.876H105.524Z" fill="#101010"/>
</svg>
