<svg width="32" height="32" viewBox="0 0 32 32" fill="none" xmlns="http://www.w3.org/2000/svg">
<g clip-path="url(#clip0_18932_1597)">
<path d="M1.1644 14.6654H4.85165C5.15917 14.6654 5.45773 14.543 5.67569 14.3251L14.328 5.6727C14.546 5.45475 14.6684 5.15917 14.6684 4.84867V1.1644C14.6684 0.522485 14.1459 0 13.504 0H1.1644C0.522485 0 0 0.522485 0 1.1644V13.504C0 14.1459 0.522485 14.6684 1.1644 14.6684V14.6654Z" fill="#CBFF54"/>
<path d="M30.8356 14.6655H27.1484C26.8409 14.6655 26.5423 14.5431 26.3244 14.3251L17.672 5.67276C17.454 5.45481 17.3316 5.15923 17.3316 4.84873V1.16446C17.3316 0.522547 17.8541 6.10352e-05 18.496 6.10352e-05H30.8356C31.4776 6.10352e-05 32 0.522547 32 1.16446V13.5041C32 14.146 31.4776 14.6685 30.8356 14.6685V14.6655Z" fill="#CBFF54"/>
<path d="M1.16443 17.3317H4.85168C5.1592 17.3317 5.45777 17.4541 5.67572 17.672L14.3281 26.3244C14.546 26.5423 14.6684 26.8379 14.6684 27.1484V30.8357C14.6684 31.4776 14.146 32.0001 13.504 32.0001H1.16443C0.522516 32.0001 3.05176e-05 31.4776 3.05176e-05 30.8357V18.4961C3.05176e-05 17.8542 0.522516 17.3317 1.16443 17.3317Z" fill="#CBFF54"/>
<path d="M30.8356 17.3317H27.1484C26.8409 17.3317 26.5423 17.4541 26.3244 17.672L17.672 26.3244C17.454 26.5423 17.3316 26.8379 17.3316 27.1484V30.8357C17.3316 31.4776 17.8541 32.0001 18.496 32.0001H30.8356C31.4776 32.0001 32 31.4776 32 30.8357V18.4961C32 17.8542 31.4776 17.3317 30.8356 17.3317Z" fill="#CBFF54"/>
<path d="M16 22.667C19.6821 22.667 22.667 19.6821 22.667 16C22.667 12.318 19.6821 9.33313 16 9.33313C12.318 9.33313 9.33313 12.318 9.33313 16C9.33313 19.6821 12.318 22.667 16 22.667Z" fill="#CBFF54"/>
</g>
<defs>
<clipPath id="clip0_18932_1597">
<rect width="32" height="32" fill="white"/>
</clipPath>
</defs>
</svg>
