<?xml version="1.0" encoding="UTF-8"?>
<svg version="1.1" xmlns="http://www.w3.org/2000/svg" width="512" height="512">
<path d="M0 0 C1.92668797 -0.0008297 3.85337585 -0.00329289 5.78005981 -0.00730896 C9.79955582 -0.01015545 13.818491 0.00442978 17.83789062 0.03198242 C22.98965328 0.06620153 28.140423 0.05999039 33.29223442 0.04131985 C37.26252538 0.03075928 41.23258475 0.03967677 45.20285416 0.05470467 C47.10306232 0.05988459 49.00329465 0.05940697 50.9034996 0.05315971 C53.55322273 0.04771341 56.20151428 0.06805775 58.85107422 0.09545898 C59.63449692 0.08893311 60.41791962 0.08240723 61.2250824 0.07568359 C64.72046976 0.13719408 66.76004813 0.35685593 69.61917114 2.4434967 C71.84108657 5.65151898 71.67657922 7.82253919 71.1328125 11.62890625 C69.58396912 13.81552124 69.58396912 13.81552124 67.1328125 15.62890625 C64.42481806 16.02177825 62.12024524 16.17353412 59.41430664 16.14306641 C58.25504921 16.15375404 58.25504921 16.15375404 57.07237244 16.16465759 C54.52064444 16.18393782 51.96974543 16.17565892 49.41796875 16.16796875 C47.64203175 16.17787508 45.86610503 16.18981609 44.0901947 16.20370483 C39.41496416 16.23608805 34.73996788 16.24646048 30.06463623 16.25054932 C22.58497533 16.25930006 15.10550717 16.29483285 7.62600517 16.34272385 C5.01525048 16.35530119 2.4047394 16.35455144 -0.20603943 16.35244751 C-1.81045722 16.3590295 -3.41487334 16.36603609 -5.01928711 16.37353516 C-6.10498489 16.36734917 -6.10498489 16.36734917 -7.21261597 16.36103821 C-12.07859865 16.39988699 -15.91318945 16.70289773 -19.48073059 20.21933657 C-21.40727219 23.56753744 -21.28176354 26.65895316 -21.24750423 30.41606045 C-21.25216415 31.20933673 -21.25682407 32.00261301 -21.2616252 32.81992796 C-21.27363496 35.49457402 -21.26415688 38.16871768 -21.25486755 40.84336853 C-21.25903786 42.77366702 -21.26451369 44.70396306 -21.27118737 46.63425452 C-21.28570053 51.9515491 -21.28137898 57.26868946 -21.27402055 62.58599269 C-21.26930566 68.31546623 -21.2817838 74.04490558 -21.29203796 79.77436829 C-21.30926426 91.00379475 -21.31005806 102.23316535 -21.30482506 113.46260159 C-21.3007893 122.58670745 -21.30221983 131.71079675 -21.30757332 140.83490181 C-21.30869595 142.78022704 -21.30869595 142.78022704 -21.30984126 144.76485177 C-21.31137269 147.39917298 -21.31291103 150.03349419 -21.31445623 152.66781539 C-21.32429027 170.36429213 -21.32844318 188.06076117 -21.32083035 205.75723934 C-21.32053317 206.44952779 -21.320236 207.14181623 -21.31992982 207.85508312 C-21.31748077 213.47729757 -21.31486924 219.09951196 -21.31224569 224.72172634 C-21.30214234 246.65460119 -21.31049894 268.5873995 -21.33374023 290.52026367 C-21.35979845 315.15142833 -21.37261511 339.78254262 -21.36555248 364.4137221 C-21.36205377 377.45944727 -21.36433528 390.50510957 -21.38180351 403.55082512 C-21.39648875 414.65622467 -21.3972092 425.76151708 -21.3797326 436.86691444 C-21.37118992 442.5363498 -21.36915249 448.20559346 -21.38438416 453.87501907 C-21.39814419 459.06074909 -21.39358072 464.2461216 -21.37414492 469.43183047 C-21.37035777 471.3120017 -21.3733842 473.19220097 -21.38375657 475.0723474 C-21.39681983 477.62063816 -21.38543947 480.16767536 -21.36775875 482.71591091 C-21.37740926 483.45246612 -21.38705977 484.18902133 -21.39700273 484.94789639 C-21.3464885 488.47354628 -20.93108675 490.52372571 -19.0859018 493.56096846 C-15.58786871 496.82128675 -12.70898939 496.75281672 -8.08021927 496.76757145 C-7.11432129 496.77304589 -6.14842331 496.77852034 -5.1532557 496.78416067 C-4.09489629 496.78513878 -3.03653687 496.78611689 -1.94610596 496.78712463 C-0.25651406 496.7945316 -0.25651406 496.7945316 1.46721101 496.8020882 C5.25515738 496.81749036 9.04308678 496.82583122 12.83105469 496.83422852 C15.54097366 496.84325666 18.25088638 496.85377141 20.96080017 496.86422729 C26.80206342 496.88598517 32.64332896 496.90413218 38.48461151 496.91983223 C46.93014265 496.94253712 55.37564877 496.9706791 63.82115868 497.00015151 C77.52317677 497.04781982 91.22520509 497.09108607 104.92724609 497.1315918 C118.23812659 497.17095059 131.54899799 497.21237774 144.85986328 497.2565918 C145.68023617 497.25931607 146.50060906 497.26204034 147.34584174 497.26484717 C151.46137891 497.27852671 155.57691594 497.29224697 159.69245291 497.30598748 C193.83922064 497.4199403 227.98600748 497.52675231 262.1328125 497.62890625 C262.12837128 496.86993042 262.12393005 496.11095459 262.11935425 495.32897949 C262.07915487 488.15000079 262.04876605 480.97107726 262.02918816 473.79201508 C262.01878437 470.10185413 262.00468799 466.41178678 261.98193359 462.72167969 C261.96008295 459.1555134 261.94821831 455.58943672 261.94305801 452.02320862 C261.93760527 450.01149538 261.92201212 447.99981781 261.90621948 445.98815918 C261.90511399 436.90870724 262.00741016 428.88267218 268.1328125 421.62890625 C274.91438647 415.2276284 283.06625763 415.98179892 291.7890625 416.140625 C293.30219345 416.1499647 294.81533965 416.15707534 296.32849121 416.1620636 C300.28754318 416.18104296 304.24566008 416.23006266 308.2043457 416.2855835 C312.25328934 416.33697378 316.30238588 416.35961956 320.3515625 416.38476562 C328.27907223 416.43819273 336.20582565 416.52339238 344.1328125 416.62890625 C344.12393005 415.61048645 344.11504761 414.59206665 344.105896 413.54278564 C344.02483948 403.94916811 343.96486123 394.35561998 343.92556381 384.76173782 C343.9046814 379.82929472 343.8763518 374.89712786 343.83105469 369.96484375 C343.78762029 365.20564811 343.76368032 360.44671832 343.75330353 355.68733978 C343.74590783 353.87081466 343.73146581 352.05430422 343.70989227 350.23789215 C343.68088984 347.69505781 343.6768551 345.15332446 343.67871094 342.61035156 C343.65713928 341.48178238 343.65713928 341.48178238 343.63513184 340.33041382 C343.66263087 336.85238987 343.86197923 334.98175521 346.0088501 332.18475342 C348.51485559 330.34905165 350.03040684 329.78024311 353.1328125 329.62890625 C355.89516901 330.33555559 357.55315087 330.8345455 359.25621033 333.168396 C360.560809 336.83023773 360.4531979 340.46774905 360.47094727 344.30957031 C360.48248337 345.184879 360.49401947 346.06018768 360.50590515 346.96202087 C360.540199 349.85620923 360.55871191 352.75018437 360.57421875 355.64453125 C360.58112165 356.63484093 360.58802456 357.6251506 360.59513664 358.64546967 C360.63096607 363.88718322 360.65450813 369.12878921 360.66821289 374.37060547 C360.68475483 379.77576152 360.7431728 385.17960792 360.81135654 390.58432388 C360.85620564 394.74860627 360.86971213 398.91257659 360.87483025 403.07707977 C360.88271076 405.06896804 360.90231627 407.06084686 360.93405342 409.05249786 C360.97563285 411.84624581 360.97263837 414.63671066 360.95922852 417.43066406 C360.98125336 418.24653488 361.0032782 419.0624057 361.02597046 419.90299988 C360.95033843 424.56257178 360.16709906 426.99932255 356.92602825 430.40414333 C353.40584218 434.25773148 350.49584172 438.29310678 347.58612061 442.61494446 C326.09040509 473.6632365 298.06829677 509.63003163 258.8840332 516.88079834 C240.55215292 520.03744562 221.89406675 520.43818225 203.3359375 520.421875 C202.53383323 520.42168013 201.73172896 520.42148527 200.9053185 520.4212845 C180.98906395 520.39474839 161.11586458 519.6720752 141.22792417 518.6588247 C128.36689373 518.00384717 115.5151069 517.55594645 102.64013672 517.29077148 C101.35761087 517.26427336 101.35761087 517.26427336 100.04917541 517.23723992 C96.60969825 517.16691325 93.17019831 517.09789234 89.73066063 517.030589 C63.55447396 516.51702705 37.37950299 515.83065972 11.22543144 514.62132835 C8.51755051 514.49620929 5.80955947 514.38082966 3.10087013 514.27467728 C-0.59764694 514.12439845 -4.29347454 513.94434897 -7.99017334 513.75505066 C-9.05566933 513.71640953 -10.12116533 513.6777684 -11.21894908 513.63795632 C-18.99386671 513.18629544 -26.20548623 511.36963714 -31.81298041 505.64111775 C-37.03606431 499.29893588 -38.16990836 492.50105717 -38.12166309 484.42131233 C-38.12486957 483.61901941 -38.12807605 482.81672649 -38.13137969 481.99012166 C-38.13967815 479.30292181 -38.13375593 476.61594494 -38.12788391 473.92874146 C-38.13090466 471.98220704 -38.13479376 470.03567381 -38.13947648 468.08914268 C-38.14977504 462.74077039 -38.14756991 457.392465 -38.14329588 452.04408717 C-38.14083204 446.27574229 -38.14983857 440.50741366 -38.15733337 434.73907471 C-38.17009187 423.4385415 -38.17187263 412.13803204 -38.16953311 400.83749284 C-38.16775109 391.65342754 -38.1694971 382.46936946 -38.17375755 373.28530502 C-38.17435274 371.97888145 -38.17494793 370.67245788 -38.17556116 369.32644572 C-38.17677289 366.67256404 -38.17798702 364.01868236 -38.17920353 361.36480068 C-38.18714689 343.54214075 -38.19090877 325.71948336 -38.18688679 307.89682198 C-38.18673041 307.19990101 -38.18657404 306.50298005 -38.18641292 305.78494026 C-38.18560714 302.25269645 -38.18476137 298.72045264 -38.18389962 295.18820883 C-38.18372853 294.48669847 -38.18355744 293.7851881 -38.18338117 293.06241984 C-38.18303452 291.64379567 -38.18268599 290.2251715 -38.18233558 288.80654733 C-38.17697824 266.73218112 -38.18490927 244.65785485 -38.20336914 222.58349609 C-38.22408657 197.78051385 -38.23478126 172.97755658 -38.23079365 148.1745652 C-38.22887979 135.04269433 -38.23138721 121.91085985 -38.24550819 108.77899551 C-38.25740757 97.59987261 -38.25884308 86.4208085 -38.24671803 75.24168481 C-38.24081925 69.53733237 -38.23975756 63.83308756 -38.25172043 58.12874222 C-38.26254486 52.90658803 -38.25951682 47.68463176 -38.24545874 42.46248697 C-38.24280233 40.57358502 -38.24520786 38.68466773 -38.25319461 36.79578079 C-38.34221352 14.17174199 -38.34221352 14.17174199 -31.45339966 6.96531677 C-22.08335741 -0.92910201 -11.57490749 -0.09031826 0 0 Z M279.1328125 433.62890625 C278.15641819 436.55808918 278.01145069 438.41916363 278.01928711 441.4675293 C278.01936264 442.44831955 278.01943817 443.4291098 278.01951599 444.43962097 C278.02467728 445.4959523 278.02983856 446.55228363 278.03515625 447.640625 C278.0365712 448.72398636 278.03798615 449.80734772 278.03944397 450.92353821 C278.04504691 454.3878555 278.05759992 457.85210845 278.0703125 461.31640625 C278.07532712 463.66341053 278.07989009 466.01041581 278.08398438 468.35742188 C278.09501729 474.11460533 278.1117583 479.87175119 278.1328125 485.62890625 C284.40797997 480.44464835 290.13373981 474.77424791 295.87890625 469.015625 C296.90008718 467.9951188 297.92141642 466.97476099 298.94288635 465.95454407 C301.06828712 463.83060833 303.19189148 461.70489737 305.31420898 459.57788086 C308.04019277 456.84615665 310.77070075 454.11900534 313.50253201 451.3931303 C315.60518158 449.2940816 317.70545942 447.19267287 319.80500984 445.09052467 C320.81184479 444.08302139 321.81942656 443.07626387 322.82775688 442.07025719 C324.22799639 440.67254106 325.62471405 439.27129935 327.02124023 437.86987305 C328.21534767 436.67457222 328.21534767 436.67457222 329.43357849 435.4551239 C331.24634511 433.92263724 331.24634511 433.92263724 331.1328125 432.62890625 C325.59243583 431.69550105 320.23407746 431.46830209 314.62109375 431.4609375 C313.73044724 431.4576091 312.83980072 431.4542807 311.92216492 431.45085144 C310.05057285 431.44581385 308.17897189 431.44344213 306.30737305 431.44360352 C303.4436991 431.44140501 300.58040343 431.42318319 297.71679688 431.40429688 C295.89323048 431.40136469 294.06966226 431.39937873 292.24609375 431.3984375 C291.39187332 431.39125198 290.53765289 431.38406647 289.657547 431.37666321 C288.4606147 431.38127815 288.4606147 431.38127815 287.23950195 431.38598633 C286.54113724 431.38456131 285.84277252 431.38313629 285.12324524 431.38166809 C282.72397884 431.67968882 281.15942804 432.3132595 279.1328125 433.62890625 Z " fill="#000000" transform="translate(94.8671875,-0.62890625)"/>
<path d="M0 0 C1.00908303 -0.00694553 2.01816605 -0.01389106 3.05782735 -0.02104706 C6.44953083 -0.03938792 9.84054042 -0.02903257 13.23226929 -0.01878357 C15.65995815 -0.02583866 18.0876426 -0.03458193 20.51531982 -0.04489136 C26.43244787 -0.06510219 32.34939875 -0.0663991 38.26653917 -0.05826581 C43.07854352 -0.05196641 47.89049182 -0.05310231 52.70249557 -0.05953789 C53.72978617 -0.06089037 53.72978617 -0.06089037 54.77783012 -0.06227018 C56.16918268 -0.0641214 57.56053523 -0.06598396 58.95188777 -0.06785773 C72.00576192 -0.08444436 85.05952807 -0.07571161 98.11339574 -0.05887216 C110.04368854 -0.04419324 121.97372909 -0.05877641 133.90398939 -0.08764232 C146.1603063 -0.1170755 158.41650695 -0.127996 170.67285764 -0.11846012 C172.06093111 -0.1174376 173.44900459 -0.11644299 174.83707809 -0.11547661 C175.51999037 -0.11500022 176.20290264 -0.11452383 176.90650923 -0.114033 C181.70691973 -0.111873 186.50721973 -0.12165146 191.30760574 -0.13624763 C197.78045088 -0.15565447 204.25294282 -0.14862454 210.72577286 -0.12404823 C213.09848295 -0.11904483 215.47122873 -0.12251775 217.84391022 -0.13519669 C221.08999663 -0.15116687 224.33455147 -0.13613686 227.58056641 -0.11352539 C228.51366469 -0.12536112 229.44676297 -0.13719685 230.40813696 -0.14939123 C237.90290034 -0.04375466 244.75846357 2.0338134 250.12205184 7.50439733 C256.30527453 15.02902616 256.46538552 22.77897729 256.43865967 32.14250183 C256.44319078 33.3087674 256.44772189 34.47503297 256.45239031 35.67663991 C256.46283657 38.90066301 256.46436429 42.1245453 256.46200156 45.34857988 C256.46159248 48.83053709 256.47264094 52.31246134 256.4821167 55.79440308 C256.49870497 62.60976725 256.50422517 69.42509681 256.50534146 76.24047948 C256.50629253 81.7789859 256.51040574 87.31748092 256.51674271 92.85598373 C256.53434562 108.56049976 256.54358253 124.26498848 256.54208176 139.96951444 C256.54200185 140.81553674 256.54192193 141.66155904 256.5418396 142.53321838 C256.54175784 143.38027353 256.54167608 144.22732868 256.54159184 145.10005216 C256.54077818 158.84087832 256.55993831 172.58159507 256.58811633 186.32238956 C256.61682476 200.43310798 256.6306579 214.54377297 256.62892878 228.65452135 C256.62826439 236.57610536 256.63377854 244.49757451 256.65528488 252.41913223 C256.67346938 259.16018576 256.67786627 265.90107229 256.66426603 272.64213969 C256.65772374 276.08182731 256.65766426 279.5211943 256.67497253 282.96085167 C256.690324 286.68778833 256.68118285 290.41387551 256.66571045 294.14079285 C256.67599758 295.23037407 256.6862847 296.31995528 256.69688356 297.44255412 C256.62954694 304.75199877 256.62954694 304.75199877 254.26532936 308.68622398 C252.00420402 310.66050448 251.12975915 311.17539597 248.17123413 311.0771637 C247.51123413 311.07845276 246.85123413 311.07974182 246.17123413 311.08106995 C243.03304102 310.19232385 242.09640284 309.20824653 240.17123413 306.5146637 C239.55496953 302.77948424 239.64281376 299.06342414 239.6791687 295.28555298 C239.67448971 294.12593424 239.66981072 292.9663155 239.66498995 291.77155679 C239.65593839 288.55197982 239.66479181 285.33301784 239.68106484 282.11348736 C239.69422472 278.64170086 239.68427506 275.16997405 239.67695618 271.69818115 C239.66727015 265.68171185 239.67174818 259.66538731 239.68537903 253.64892769 C239.70472929 244.9446795 239.69830908 236.24059435 239.68480521 227.53634196 C239.6632153 213.40744445 239.65651231 199.27858536 239.66195679 185.14967346 C239.66227742 184.30391242 239.66259805 183.45815139 239.6629284 182.58676123 C239.66564105 175.72468303 239.66907222 168.86260523 239.67253399 162.00052738 C239.67552894 156.00369338 239.67823722 150.00685934 239.68051147 144.01002502 C239.68099974 142.74338177 239.68099974 142.74338177 239.68149787 141.45114977 C239.68643817 127.37667119 239.6757705 113.30224599 239.65393972 99.2277841 C239.6412315 90.54435449 239.64270931 81.86114462 239.66239059 73.17772686 C239.67498571 67.22907969 239.67354747 61.28054407 239.66101706 55.33189709 C239.65429563 51.89830452 239.65422689 48.46503732 239.67159843 45.03147507 C239.68712612 41.31095253 239.6782914 37.59126413 239.66329956 33.87075806 C239.67903291 32.23915311 239.67903291 32.23915311 239.6950841 30.57458645 C239.65491091 26.11578949 239.61464149 23.29832969 237.39048004 19.3674078 C234.094745 16.61595352 231.12543566 16.38999496 226.92642975 16.38717175 C225.65893615 16.38266027 225.65893615 16.38266027 224.36583662 16.37805766 C223.44249793 16.37980803 222.51915923 16.3815584 221.56784058 16.38336182 C220.58310902 16.3812461 219.59837747 16.37913039 218.58380556 16.37695056 C215.2750467 16.37094584 211.96632592 16.37195104 208.65756226 16.37281799 C206.28910762 16.36978689 203.92065356 16.36626557 201.55220032 16.36228943 C196.4475854 16.35439757 191.34297748 16.34925449 186.23835754 16.34599876 C178.17173154 16.34050041 170.10514778 16.32360198 162.0385437 16.30465698 C159.27870948 16.29830052 156.51887515 16.29199207 153.75904083 16.28567982 C152.72452379 16.28330417 152.72452379 16.28330417 151.66910741 16.28088054 C143.82037273 16.26294784 135.97163508 16.24671861 128.12289429 16.23170471 C127.40546737 16.23032884 126.68804046 16.22895297 125.94887334 16.2275354 C114.3153176 16.2055916 102.68177274 16.19484545 91.04819995 16.18733396 C79.10603403 16.17926771 67.16396155 16.15599519 55.22184896 16.1193803 C48.5158976 16.09931754 41.81009408 16.0866835 35.10411072 16.09221458 C28.80036215 16.09684328 22.49692497 16.08315307 16.19323921 16.05520248 C13.87606897 16.04826122 11.55886674 16.04819543 9.24169731 16.05540276 C6.08563233 16.06423023 2.9306078 16.04869609 -0.22537231 16.0269165 C-1.14871101 16.03535904 -2.0720497 16.04380158 -3.02336836 16.05249995 C-9.17855674 15.97360467 -9.17855674 15.97360467 -12.39772797 13.7013979 C-14.5075982 10.47735653 -14.36643528 8.27834955 -13.82876587 4.5146637 C-10.40057181 -0.77558744 -5.70205056 -0.04964621 0 0 Z " fill="#000000" transform="translate(198.82876586914063,-0.5146636962890625)"/>
<path d="M0 0 C1.04293258 -0.00322445 2.08586516 -0.00644889 3.16040176 -0.00977105 C4.8770627 -0.00744815 4.8770627 -0.00744815 6.62840366 -0.00507832 C8.45358637 -0.00847665 8.45358637 -0.00847665 10.31564146 -0.01194364 C13.69463759 -0.01718535 17.07358057 -0.01792741 20.45257699 -0.01674926 C24.09613037 -0.0165454 27.73967577 -0.02206264 31.38322544 -0.02680683 C38.52184826 -0.03511665 45.66046283 -0.03786181 52.79909008 -0.03841921 C58.60034565 -0.03889416 64.40159849 -0.04094788 70.2028532 -0.04411983 C86.64447714 -0.05292691 103.08609455 -0.05753907 119.52772086 -0.05678936 C120.85754504 -0.05672943 120.85754504 -0.05672943 122.21423435 -0.05666828 C123.101864 -0.0566274 123.98949364 -0.05658652 124.90402115 -0.0565444 C139.29488815 -0.0561378 153.68572901 -0.06571073 168.07658844 -0.07980665 C182.84713318 -0.09416053 197.61766515 -0.10107739 212.38821703 -0.10021287 C220.68316411 -0.09988058 228.97808376 -0.1026416 237.27302456 -0.11339092 C244.33434272 -0.12248288 251.39562102 -0.1246819 258.45694249 -0.1178815 C262.06056679 -0.11460982 265.66411458 -0.11458289 269.26773167 -0.12323475 C273.17192693 -0.132512 277.07600964 -0.12634071 280.9802103 -0.11860371 C282.12242021 -0.12374727 283.26463012 -0.12889083 284.44145244 -0.13419026 C285.48699277 -0.12959147 286.5325331 -0.12499267 287.60975647 -0.12025452 C288.96153603 -0.12058057 288.96153603 -0.12058057 290.34062427 -0.12091321 C293.21144758 0.1625683 295.29967925 0.81800492 297.86779881 2.12863445 C300.34818787 5.84921806 300.33117084 7.72660016 299.86779881 12.12863445 C297.86548928 14.71459414 296.66480227 15.96495501 293.42635059 16.63003111 C292.50655792 16.63068052 291.58676525 16.63132993 290.63910007 16.63199902 C289.57465042 16.64243001 288.51020077 16.65286099 287.41349506 16.66360807 C286.24502663 16.65468519 285.07655819 16.6457623 283.87268162 16.63656902 C282.63068626 16.64280899 281.38869091 16.64904895 280.10905933 16.655478 C276.65943375 16.66869135 273.2106768 16.66391096 269.76110363 16.65153313 C266.04187723 16.6424981 262.32272779 16.65644463 258.60351658 16.66745281 C251.31678652 16.68525926 244.03022106 16.68138865 236.7434845 16.66980225 C230.82254718 16.66077653 224.90165606 16.65954018 218.98071384 16.66389751 C217.7176944 16.66481691 217.7176944 16.66481691 216.4291594 16.66575488 C214.71874045 16.66703376 213.00832151 16.66833061 211.29790258 16.66964525 C195.25123247 16.68105727 179.2046537 16.66792761 163.15799856 16.64644378 C149.38283414 16.62857223 135.60780454 16.63167616 121.83264256 16.65011883 C105.84423572 16.67151458 89.85590897 16.67995858 73.86748981 16.66766977 C72.16328781 16.66639555 70.45908579 16.66513807 68.75488377 16.66389751 C67.91633704 16.66328041 67.07779032 16.66266331 66.21383309 16.66202751 C60.29854205 16.65857071 54.38330172 16.66441003 48.46801853 16.67381573 C41.26132591 16.68502272 34.05480759 16.68202318 26.84813499 16.66069275 C23.16963002 16.65016467 19.4914159 16.64609007 15.81291294 16.65928936 C11.82941537 16.67336708 7.84639631 16.6565826 3.86291599 16.63656902 C2.11021334 16.64995335 2.11021334 16.64995335 0.32210255 16.66360807 C-0.74234711 16.65317708 -1.80679676 16.6427461 -2.90350246 16.63199902 C-3.82329514 16.63134961 -4.74308781 16.6307002 -5.69075298 16.63003111 C-8.92737845 15.96533006 -10.12627757 14.70870319 -12.13220119 12.12863445 C-12.5973754 8.40724081 -12.64075078 6.09487866 -10.88220119 2.75363445 C-7.72634502 -0.17680343 -4.15102231 0.00324529 0 0 Z " fill="#000000" transform="translate(112.13220119476318,265.8713655471802)"/>
<path d="M0 0 C1.23397711 -0.00623996 2.46795422 -0.01247993 3.73932457 -0.01890898 C7.16196022 -0.03210804 10.5837185 -0.02735212 14.00630093 -0.0149641 C17.69826217 -0.00591992 21.39014632 -0.01988017 25.08209229 -0.03088379 C32.31354163 -0.04868042 39.54482501 -0.04482398 46.77628088 -0.03323323 C52.6528494 -0.02420366 58.52937136 -0.02297283 64.40594482 -0.02732849 C65.24198285 -0.02794142 66.07802088 -0.02855436 66.9393934 -0.02918586 C68.63773109 -0.03046475 70.33606876 -0.0317616 72.03440642 -0.03307623 C87.96379585 -0.04448537 103.89309323 -0.03136309 119.82246757 -0.00987476 C133.49383307 0.00799654 147.16506273 0.00489252 160.83642578 -0.0135498 C176.70838725 -0.03495062 192.58026802 -0.0433867 208.4522419 -0.03110075 C210.14436975 -0.02982654 211.83649761 -0.02856906 213.52862549 -0.02732849 C214.77749969 -0.02640284 214.77749969 -0.02640284 216.05160367 -0.02545848 C221.92185296 -0.02200321 227.79205111 -0.02783773 233.66229248 -0.0372467 C240.81513397 -0.04845932 247.96779986 -0.04544227 255.1206212 -0.02412373 C258.77090401 -0.01360325 262.42089391 -0.00950817 266.07117462 -0.02272034 C270.02580589 -0.03681774 273.97995638 -0.01999765 277.93457031 0 C279.09166189 -0.00892289 280.24875347 -0.01784577 281.44090843 -0.02703905 C289.19512814 0.04934914 289.19512814 0.04934914 293.17782593 2.41468048 C295.09966371 4.66278692 295.64935716 5.58584815 295.59228516 8.50793457 C295.60517578 9.16793457 295.61806641 9.82793457 295.63134766 10.50793457 C294.52303078 13.84592422 293.00244679 14.70534665 289.96728516 16.50793457 C285.96117137 17.11639426 281.97992656 17.04706482 277.93457031 17.01586914 C276.7005932 17.0221091 275.4666161 17.02834907 274.19524574 17.03477812 C270.77261009 17.04797718 267.35085181 17.04322126 263.92826939 17.03083324 C260.23630814 17.02178906 256.54442399 17.03574931 252.85247803 17.04675293 C245.62102869 17.06454956 238.38974531 17.06069312 231.15828943 17.04910237 C225.28172092 17.0400728 219.40519895 17.03884197 213.52862549 17.04319763 C212.69258746 17.04381056 211.85654943 17.0444235 210.99517691 17.045055 C209.29683922 17.04633389 207.59850155 17.04763074 205.90016389 17.04894537 C189.97077446 17.06035451 174.04147708 17.04723223 158.11210275 17.0257439 C144.44073724 17.0078726 130.76950759 17.01097662 117.09814453 17.02941895 C101.22618307 17.05081976 85.35430229 17.05925585 69.48232841 17.04696989 C67.79020056 17.04569568 66.0980727 17.0444382 64.40594482 17.04319763 C63.57336202 17.04258053 62.74077922 17.04196343 61.88296664 17.04132763 C56.01271735 17.03787235 50.1425192 17.04370687 44.27227783 17.05311584 C37.11943634 17.06432846 29.96677045 17.06131141 22.81394911 17.03999287 C19.1636663 17.02947239 15.5136764 17.02537731 11.86339569 17.03858948 C7.90876442 17.05268688 3.95461393 17.03586679 0 17.01586914 C-1.15709158 17.02479203 -2.31418316 17.03371491 -3.50633812 17.04290819 C-11.26055783 16.96652 -11.26055783 16.96652 -15.24325562 14.60118866 C-17.1650934 12.35308223 -17.71478684 11.43002099 -17.65771484 8.50793457 C-17.67060547 7.84793457 -17.68349609 7.18793457 -17.69677734 6.50793457 C-15.11338164 -1.27264543 -6.63697027 -0.05118085 0 0 Z " fill="#000000" transform="translate(117.03271484375,155.4920654296875)"/>
<path d="M0 0 C3 1.6875 3 1.6875 5 5 C5.40928566 12.723955 3.74310667 20.50294898 2 28 C2.94488281 27.84144531 3.88976562 27.68289063 4.86328125 27.51953125 C9.63205877 26.84376439 14.37700287 26.74051797 19.1875 26.6875 C20.07630859 26.65849609 20.96511719 26.62949219 21.88085938 26.59960938 C28.31040974 26.53681136 28.31040974 26.53681136 31.59375 28.7421875 C33.16446108 31.2640514 33.46021426 32.49849567 33.3125 35.4375 C33.27769531 36.21867187 33.24289063 36.99984375 33.20703125 37.8046875 C32.97594123 40.25511377 32.61536479 42.61546143 32 45 C35.21732876 42.76574392 37.32861871 40.72161815 39.1875 37.3125 C41 34 41 34 43 33 C49.1746302 32.54261999 49.1746302 32.54261999 52.1640625 34.19921875 C55.00839467 36.98908498 54.86343081 39.89995478 55.3125 43.72265625 C55.79249572 46.11211983 55.79249572 46.11211983 57.7578125 47.3515625 C62.9161958 48.84335976 68.60547037 46.73828039 73.1875 44.3125 C76.92210354 42.56968501 79.07496408 42.88914078 83 44 C85.76913845 46.32250322 85.97632892 47.85534341 86.5625 51.4375 C86 55 86 55 83.625 57.6875 C76.37755735 62.83029888 67.86302431 65.34040065 59 65 C54.53861437 64.17800068 50.49785067 63.18766145 46.90625 60.33984375 C45.96265625 59.67662109 45.96265625 59.67662109 45 59 C43.36283201 59.43435069 41.72733993 59.88451606 40.125 60.43359375 C34.47445018 61.93971457 28.83763068 61.86869814 23.5625 59.375 C18.08425883 54.29760574 16.49962277 50.24453012 16 43 C14.329375 43.2475 14.329375 43.2475 12.625 43.5 C7.74489662 44.12094505 2.91138052 44.09057874 -2 44 C-2.08636719 44.55945313 -2.17273438 45.11890625 -2.26171875 45.6953125 C-4.44962848 58.18044877 -8.26424826 70.39631242 -18 79 C-26.09223834 84.60828988 -34.81492818 86.24662129 -44.4765625 84.5703125 C-57.15068727 81.31125185 -65.38762996 73.73687878 -71.9375 62.75 C-73.86398062 55.95065664 -74.39912791 48.23501164 -71.5 41.625 C-67.69087668 35.28093193 -62.01654165 30.86826948 -55.0546875 28.5078125 C-49.75766973 27.19866362 -44.63219629 26.86172622 -39.1953125 26.90234375 C-38.1093428 26.90446617 -38.1093428 26.90446617 -37.00143433 26.90663147 C-34.70924593 26.91218925 -32.41715843 26.92473367 -30.125 26.9375 C-28.56250142 26.94252047 -27.00000129 26.94708241 -25.4375 26.95117188 C-21.62496165 26.96214481 -17.81249788 26.9793799 -14 27 C-13.94376465 26.28714844 -13.8875293 25.57429688 -13.82958984 24.83984375 C-13.37912231 19.4739539 -12.824127 14.2606862 -11.625 9 C-11.39039063 7.9275 -11.15578125 6.855 -10.9140625 5.75 C-8.9578033 -0.13549775 -6.00288306 -0.82798387 0 0 Z M-56 47.8125 C-57.37876666 50.82855207 -57.46083566 52.70831675 -57 56 C-54.22237015 61.79679273 -49.69727868 65.26246204 -44 68 C-39.22116578 69.29351904 -35.41205071 69.45292192 -30.6875 67.9375 C-24.32526083 63.35076944 -22.09084303 58.48875338 -20.1875 51.125 C-19.97158203 50.34125 -19.75566406 49.5575 -19.53320312 48.75 C-19.00831437 46.83707211 -18.50219122 44.91901154 -18 43 C-22.49987562 42.91232257 -26.999529 42.85937991 -31.5 42.8125 C-32.7684375 42.78736328 -34.036875 42.76222656 -35.34375 42.73632812 C-46.49317728 42.55874346 -46.49317728 42.55874346 -56 47.8125 Z " fill="#000000" transform="translate(173,383)"/>
<path d="M0 0 C6.09936522 3.91388423 7.54031241 8.07371522 9.4296875 14.89453125 C9.84977585 16.31556404 9.84977585 16.31556404 10.27835083 17.76530457 C11.16346756 20.77572903 12.0195186 23.79353597 12.875 26.8125 C13.47205554 28.86188343 14.07099386 30.91071935 14.671875 32.95898438 C16.13644474 37.96652174 17.57727785 42.98042278 19 48 C19.34256836 46.75387939 19.68513672 45.50775879 20.03808594 44.22387695 C21.31562193 39.58925777 22.60903674 34.95919454 23.90722656 30.33032227 C24.46623964 28.32859553 25.02097386 26.32566861 25.57128906 24.3215332 C26.36434439 21.43632919 27.17283008 18.55583146 27.984375 15.67578125 C28.22621521 14.78288895 28.46805542 13.88999664 28.71722412 12.970047 C30.08260406 8.18734902 31.40303834 4.61875318 35 1 C37.65220309 -0.09673607 40.14677439 -0.204207 43 0 C46.62090756 1.57430764 47.79255284 2.68882926 50 6 C50.55277428 8.1459779 51.02482485 10.3131121 51.45214844 12.48754883 C51.58244949 13.14159195 51.71275055 13.79563507 51.84700012 14.46949768 C52.27519777 16.63062764 52.69293548 18.79360682 53.109375 20.95703125 C53.40260833 22.46297826 53.6960067 23.96889314 53.98956299 25.47477722 C54.60302962 28.63206151 55.2106501 31.7904104 55.81494141 34.94946289 C56.58905469 38.9908359 57.38337422 43.02794362 58.18291855 47.06435108 C58.79550273 50.17397482 59.39427491 53.28614239 59.98926544 56.39917564 C60.27619593 57.88841918 60.56807374 59.37671858 60.86504364 60.86399269 C61.27967848 62.94826798 61.67479915 65.03537936 62.06542969 67.12426758 C62.40945831 68.9027282 62.40945831 68.9027282 62.76043701 70.71711731 C63.02777589 74.38063051 62.44956998 76.64800721 61 80 C59.3125 81.9375 59.3125 81.9375 57 83 C51.04365981 82.79100561 51.04365981 82.79100561 48.36523438 80.76098633 C46.62885976 78.52127423 46.25752349 76.7273317 45.71875 73.94921875 C45.51636719 72.93923828 45.31398438 71.92925781 45.10546875 70.88867188 C44.90566406 69.83228516 44.70585937 68.77589844 44.5 67.6875 C44.09428067 65.6288016 43.68802525 63.57020878 43.28125 61.51171875 C43.07886719 60.47063965 42.87648438 59.42956055 42.66796875 58.35693359 C41.51382961 52.55670946 40.25536239 46.77908881 39 41 C38.69296143 42.13018555 38.38592285 43.26037109 38.06958008 44.42480469 C36.92286463 48.62689112 35.75249134 52.82208213 34.57495117 57.015625 C34.06914583 58.82959229 33.56972652 60.64535311 33.0769043 62.46289062 C32.36628443 65.07923123 31.63274507 67.68820489 30.89453125 70.296875 C30.6797261 71.10743347 30.46492096 71.91799194 30.24360657 72.75311279 C28.83577976 77.62293409 27.51641276 80.24835289 23 83 C20.9375 83.56640625 20.9375 83.56640625 19 83.5625 C18.360625 83.58441406 17.72125 83.60632813 17.0625 83.62890625 C13.72612659 82.61156512 12.24479149 80.63628244 10 78 C8.72089282 75.22167354 7.91297254 72.36342016 7.10546875 69.41796875 C6.86838699 68.60378983 6.63130524 67.7896109 6.38703918 66.95075989 C5.63849286 64.36713775 4.91274986 61.77774683 4.1875 59.1875 C3.68183427 57.427304 3.17468811 55.66753257 2.66601562 53.90820312 C1.42682199 49.61019359 0.20802785 45.30686812 -1 41 C-1.20363159 42.03386841 -1.20363159 42.03386841 -1.41137695 43.08862305 C-2.91950986 50.7301276 -4.45230577 58.36641594 -6 66 C-6.15936035 66.79583496 -6.3187207 67.59166992 -6.48291016 68.41162109 C-6.85131171 70.23527435 -7.23701499 72.05541253 -7.625 73.875 C-7.82351563 74.82117188 -8.02203125 75.76734375 -8.2265625 76.7421875 C-9.09193065 79.26836321 -9.88611507 80.38917903 -12 82 C-16.00116096 83.1114336 -18.11518198 83.39534422 -21.9375 81.6875 C-25.52814817 77.00877663 -24.31278389 71.42776587 -23.58554077 65.78305054 C-23.00379843 62.13075111 -22.36312174 58.49372652 -21.69921875 54.85546875 C-21.45931737 53.51418739 -21.21989034 52.17282111 -20.98091125 50.83137512 C-20.48137812 48.03926265 -19.9754982 45.24839578 -19.46508789 42.45825195 C-18.81333748 38.89201262 -18.17880253 35.32295506 -17.54905987 31.75277233 C-17.05957754 28.9898748 -16.56051938 26.22877225 -16.0586338 23.46810341 C-15.70574386 21.51655384 -15.36129802 19.56348342 -15.01701355 17.61039734 C-14.79701187 16.42178604 -14.57701019 15.23317474 -14.3503418 14.00854492 C-14.06721382 12.44495491 -14.06721382 12.44495491 -13.77836609 10.84977722 C-12.71005919 6.93846004 -11.04999129 4.04999129 -8.1875 1.1875 C-5.1472735 -0.46290867 -3.42050168 -0.54728027 0 0 Z " fill="#000000" transform="translate(348,44)"/>
<path d="M0 0 C0.95614669 -0.00538554 1.91229338 -0.01077108 2.89741421 -0.01631981 C6.10955517 -0.03065681 9.32128736 -0.02348146 12.53344727 -0.01637268 C14.83293999 -0.0220732 17.13242988 -0.02903621 19.43191528 -0.03717041 C25.68385435 -0.05515099 31.93565344 -0.05392434 38.18761063 -0.04822803 C43.40166332 -0.0451436 48.61568883 -0.05122022 53.82973766 -0.05726677 C66.83003627 -0.07213054 79.83025603 -0.06848487 92.83055437 -0.05640347 C104.12468253 -0.04646832 115.41864693 -0.05941565 126.71274984 -0.08333766 C138.30684238 -0.10771028 149.90085177 -0.1169411 161.49496937 -0.11068493 C168.00531377 -0.10730739 174.51552282 -0.10978343 181.02584839 -0.12693596 C187.14572724 -0.1423554 193.26529231 -0.13850507 199.38515854 -0.11963081 C201.63461114 -0.11593123 203.88408673 -0.11909297 206.13351822 -0.1295166 C209.19761421 -0.14263421 212.26065722 -0.13126082 215.32470703 -0.11352539 C216.66886012 -0.1279329 216.66886012 -0.1279329 218.04016781 -0.14263147 C224.04955127 -0.07076092 224.04955127 -0.07076092 227.21055603 2.29400539 C228.77091195 4.54423498 229.23015338 5.67414773 229.22485352 8.38768005 C229.24676758 9.04768005 229.26868164 9.70768005 229.29125977 10.38768005 C228.26931836 13.63758067 226.52521186 14.59699546 223.66235352 16.38768005 C220.53410925 16.96886556 217.45470193 16.91903731 214.28038025 16.88215637 C213.33154624 16.8869852 212.38271223 16.89181403 211.40512568 16.89678919 C208.22358033 16.90806699 205.04283748 16.89073543 201.86132812 16.8735199 C199.58139325 16.87566557 197.30145944 16.87954299 195.02153015 16.88502502 C188.82743279 16.89472704 182.63362321 16.8794045 176.43956065 16.85911894 C169.96317411 16.84156709 163.48679671 16.84507264 157.01039124 16.84584045 C146.13480725 16.84396681 135.25933693 16.82670155 124.38378906 16.79930115 C113.19268777 16.77112031 102.00168414 16.75695991 90.81054688 16.75828552 C90.12113913 16.75836543 89.43173139 16.75844535 88.7214325 16.75852768 C87.68911207 16.75864874 87.68911207 16.75864874 86.63593668 16.75877225 C74.54173764 16.76008191 62.44758518 16.74978881 50.35339546 16.73318863 C45.20156099 16.72611873 40.04974062 16.72246153 34.89790154 16.72140121 C28.83470612 16.7193953 22.77161368 16.70720988 16.70845222 16.68706894 C14.47996781 16.68121681 12.25147154 16.67876863 10.02297974 16.67992401 C6.98765731 16.68090236 3.9526252 16.66962431 0.91734314 16.65510559 C-0.41411392 16.6597514 -0.41411392 16.6597514 -1.7724691 16.66449106 C-2.58549758 16.65804217 -3.39852605 16.65159327 -4.23619175 16.64494896 C-4.93672344 16.64354011 -5.63725513 16.64213126 -6.35901505 16.64067972 C-9.50358724 16.23859589 -11.69999559 15.20751692 -13.65014648 12.70018005 C-14.66687477 9.28027582 -14.21045797 6.81658232 -13.33764648 3.38768005 C-9.75566724 -0.72883599 -5.03786565 -0.03378834 0 0 Z " fill="#000000" transform="translate(183.337646484375,192.61231994628906)"/>
<path d="M0 0 C9.49340875 6.95447385 14.58822068 15.31781129 17.3515625 26.72265625 C18.56951975 40.48840565 16.26211089 51.80671762 7.3515625 62.72265625 C0.40212678 70.29830486 -9.06524775 75.30127684 -19.37109375 75.9609375 C-33.55156159 76.32764551 -43.81384749 73.44514215 -54.6484375 63.72265625 C-62.71036209 54.97270099 -66.50072858 43.6121344 -66.03125 31.765625 C-64.41670888 18.93167055 -59.0355158 8.85155664 -49.21875 0.515625 C-34.10103754 -10.03001332 -15.31063043 -9.89115331 0 0 Z M-44.6484375 18.72265625 C-48.68989887 25.08854193 -50.48084302 31.19632298 -49.6484375 38.72265625 C-47.12650393 47.97431473 -41.88024325 53.93458132 -33.6484375 58.72265625 C-26.72022299 61.01753653 -18.86423567 60.70590389 -12.2734375 57.66015625 C-5.85123853 53.99032827 -1.39986053 49.04787993 0.875 41.94921875 C2.51820494 34.27194975 1.83743042 27.87719406 -2.03515625 21.015625 C-6.42354521 14.77837484 -12.13580454 10.35455891 -19.6484375 8.72265625 C-29.78214354 7.75754139 -37.91178447 11.02580155 -44.6484375 18.72265625 Z " fill="#000000" transform="translate(224.6484375,51.27734375)"/>
<path d="M0 0 C1.0621875 -0.00193359 2.124375 -0.00386719 3.21875 -0.00585938 C4.87003906 0.02991211 4.87003906 0.02991211 6.5546875 0.06640625 C7.63234375 0.05544922 8.71 0.04449219 9.8203125 0.03320312 C18.42487526 0.1109552 26.59398772 1.44609154 33.3671875 7.06640625 C34.388125 8.33484375 34.388125 8.33484375 35.4296875 9.62890625 C36.1515625 10.43328125 36.8734375 11.23765625 37.6171875 12.06640625 C41.90044835 18.1220509 42.0846684 24.43435047 41.4296875 31.62890625 C39.95485166 38.34632261 36.6046264 43.5057876 30.8828125 47.33203125 C28.42439703 48.81819201 25.94918087 50.24930017 23.4296875 51.62890625 C24.14253906 52.39074219 24.85539062 53.15257812 25.58984375 53.9375 C41.05561157 70.55448521 41.05561157 70.55448521 42.1171875 76.44140625 C41.4296875 79.62890625 41.4296875 79.62890625 39.9296875 82.06640625 C37.09653192 83.83712849 34.85128606 84.38926816 31.5 84.19140625 C27.33752287 83.06046907 25.07613093 79.86282655 22.4296875 76.62890625 C21.70652344 75.76007813 20.98335938 74.89125 20.23828125 73.99609375 C18.69957027 72.12672915 17.17087598 70.24907428 15.65234375 68.36328125 C12.6735739 64.69871377 9.56403295 61.16008334 6.4296875 57.62890625 C6.4203418 58.23887451 6.41099609 58.84884277 6.40136719 59.47729492 C6.34747424 62.25780112 6.26386681 65.03665887 6.1796875 67.81640625 C6.15841797 69.2559668 6.15841797 69.2559668 6.13671875 70.72460938 C5.9858117 75.08582325 5.82894813 77.93106811 3.6328125 81.76953125 C1.30491414 83.73421143 0.42536547 84.29087212 -2.5703125 84.19140625 C-3.2303125 84.19269531 -3.8903125 84.19398437 -4.5703125 84.1953125 C-7.52878794 83.35746301 -8.66737526 82.03465774 -10.5703125 79.62890625 C-11.0849762 76.37220764 -11.0849762 76.37220764 -11.10375977 72.46118164 C-11.11237534 71.74686478 -11.12099091 71.03254791 -11.12986755 70.29658508 C-11.15253692 67.93954036 -11.1457873 65.58368378 -11.13671875 63.2265625 C-11.14195427 61.58515571 -11.14823049 59.94375194 -11.15550232 58.30235291 C-11.16590849 54.86328977 -11.16134271 51.42464034 -11.14672852 47.9855957 C-11.12954728 43.58242004 -11.15302533 39.18055011 -11.18821812 34.77752018 C-11.21020014 31.38792809 -11.20874869 27.998648 -11.2004528 24.60900688 C-11.19963357 22.98592129 -11.20649169 21.36281272 -11.22122383 19.73979378 C-11.23868454 17.46772654 -11.22411866 15.19799931 -11.20141602 12.92602539 C-11.20045425 11.63459122 -11.19949249 10.34315704 -11.19850159 9.0125885 C-10.0326826 2.73301266 -6.1971158 -0.00472421 0 0 Z M5.4296875 16.62890625 C5.4296875 22.89890625 5.4296875 29.16890625 5.4296875 35.62890625 C8.4925 35.72171875 8.4925 35.72171875 11.6171875 35.81640625 C13.34001953 35.86861328 13.34001953 35.86861328 15.09765625 35.921875 C18.73534009 35.60203175 20.52144612 34.77984789 23.4296875 32.62890625 C25.53070345 29.95488595 25.42815726 28.5860594 25.3046875 25.12890625 C24.35225555 21.31917844 23.50762585 19.98262381 20.4296875 17.62890625 C15.52899787 15.99534304 10.57230274 16.57360931 5.4296875 16.62890625 Z " fill="#000000" transform="translate(267.5703125,43.37109375)"/>
<path d="M0 0 C1.05444966 -0.00935994 1.05444966 -0.00935994 2.13020134 -0.01890898 C4.48574234 -0.03486406 6.84025211 -0.02222582 9.19580078 -0.00964355 C10.88446659 -0.01506359 12.57312768 -0.02218558 14.26177979 -0.03088379 C18.84855979 -0.04913428 23.4349803 -0.04204255 28.02176666 -0.02936745 C32.81920855 -0.0192487 37.61661942 -0.02862999 42.4140625 -0.03491211 C50.47092217 -0.0421918 58.52763524 -0.03259239 66.58447266 -0.0135498 C75.9026788 0.00821956 85.22053487 0.00116842 94.53873253 -0.02085543 C102.53544298 -0.03900027 110.53204797 -0.04157223 118.52877235 -0.03110075 C123.30649174 -0.02486078 128.08404652 -0.024044 132.86175537 -0.0372467 C137.35327309 -0.04879129 141.84433896 -0.04080512 146.3358078 -0.01766968 C147.98538207 -0.01237511 149.63499429 -0.01390914 151.28455353 -0.02272034 C153.53429329 -0.03363058 155.78257975 -0.01996925 158.03222656 0 C159.29173126 0.0015081 160.55123596 0.0030162 161.84890747 0.00457001 C165.60269752 0.6011605 166.79782761 1.46584126 169.01611328 4.50793457 C169.51611328 8.00793457 169.51611328 8.00793457 169.01611328 11.50793457 C166.79748299 14.4151053 165.496664 15.347751 162.01611328 16.50793457 C159.80805871 16.60429299 157.59714739 16.63859859 155.38699341 16.64164734 C154.71008827 16.6439129 154.03318313 16.64617845 153.33576572 16.64851266 C151.06269376 16.65485363 148.7896814 16.65402324 146.51660156 16.65319824 C144.88882368 16.65618968 143.2610465 16.65959217 141.63327026 16.66337585 C137.20762972 16.67222179 132.78200849 16.67455422 128.35635996 16.67519164 C124.66348086 16.67614045 120.97060628 16.67981845 117.27772892 16.68336374 C108.56568414 16.69151062 99.85364971 16.69394776 91.14160156 16.6932373 C82.15128812 16.6926365 73.16103469 16.70318838 64.17073643 16.71898097 C56.45515985 16.73205194 48.73960288 16.73742138 41.02401531 16.7367819 C36.41451909 16.73652677 31.80507617 16.73938596 27.19559097 16.74995995 C22.86016414 16.75963343 18.52484165 16.75972526 14.18941116 16.75244331 C12.59830066 16.75139653 11.00718368 16.75376594 9.41608429 16.75980377 C7.24366664 16.7675135 5.07161023 16.76288583 2.89920044 16.75517273 C1.07574695 16.75598988 1.07574695 16.75598988 -0.78454399 16.75682354 C-3.99085941 16.50739214 -6.15547977 16.01833049 -8.98388672 14.50793457 C-11.46427579 10.78735097 -11.44725875 8.90996886 -10.98388672 4.50793457 C-7.83291697 0.15775607 -5.20283241 0.00622975 0 0 Z " fill="#000000" transform="translate(110.98388671875,229.4920654296875)"/>
<path d="M0 0 C1.24494232 -0.00990463 2.48988464 -0.01980927 3.77255249 -0.03001404 C5.14434914 -0.02577632 6.51614482 -0.02121849 7.88793945 -0.01637268 C9.33867926 -0.02207752 10.78941457 -0.02904222 12.24014282 -0.03717041 C16.17400611 -0.05510315 20.10764636 -0.05393345 24.04153824 -0.04822803 C27.32693811 -0.04513677 30.6122951 -0.05122781 33.89768887 -0.05726677 C41.64805611 -0.07131034 49.39831312 -0.06975172 57.14868164 -0.05836487 C65.14280094 -0.0468794 73.13658493 -0.06096673 81.13066006 -0.08776134 C87.99704825 -0.10991394 94.86333115 -0.11655686 101.72975254 -0.11068493 C105.82955011 -0.1073136 109.92913265 -0.10974215 114.02890015 -0.12693596 C117.88351758 -0.1423965 121.73763784 -0.13845997 125.59223557 -0.11963081 C127.00596394 -0.11594262 128.41972909 -0.11906022 129.83342361 -0.1295166 C131.76472517 -0.14270987 133.69615504 -0.12878115 135.62744141 -0.11352539 C136.70774124 -0.11331611 137.78804108 -0.11310682 138.90107727 -0.1128912 C142.5203226 0.50911771 144.20632119 1.85173119 146.8137207 4.38768005 C147.44262695 6.38768005 147.44262695 6.38768005 147.3762207 8.38768005 C147.37750977 9.04768005 147.37879883 9.70768005 147.38012695 10.38768005 C146.55301589 13.30823775 145.15723317 14.48454086 142.8137207 16.38768005 C139.99289036 16.89383793 139.99289036 16.89383793 136.67176819 16.90234375 C135.41137222 16.91506821 134.15097626 16.92779266 132.85238647 16.94090271 C131.45806697 16.93472043 130.0637493 16.9281144 128.66943359 16.92112732 C127.19913364 16.92818562 125.72884096 16.93693027 124.25856018 16.94723511 C120.26673418 16.96974991 116.27530427 16.96678455 112.28343892 16.95791364 C108.95085691 16.95280567 105.61834946 16.96009478 102.28577513 16.96738571 C94.42368622 16.98439154 86.56179137 16.98081229 78.69970703 16.96409607 C70.58908847 16.94717439 62.47900809 16.96300807 54.36844832 16.99531895 C47.40440006 17.02201118 40.44051938 17.02929187 33.47642511 17.02080387 C29.31732805 17.01587346 25.15855482 17.01809605 20.99949837 17.03859138 C17.08816098 17.05694296 13.17759784 17.0509972 9.26630211 17.02639198 C7.8316143 17.02138225 6.39686755 17.02487825 4.96222687 17.03754044 C3.00242161 17.05346809 1.04242852 17.03550068 -0.91734314 17.01586914 C-2.01369048 17.01528283 -3.11003782 17.01469652 -4.23960781 17.01409245 C-8.15370866 16.18202098 -9.68029105 14.43101319 -12.1862793 11.38768005 C-12.6315918 9.25486755 -12.6315918 9.25486755 -12.3112793 7.26268005 C-12.23135742 6.60010193 -12.15143555 5.9375238 -12.0690918 5.25486755 C-9.78089031 0.41522015 -4.81256106 0.01082479 0 0 Z " fill="#000000" transform="translate(265.186279296875,302.61231994628906)"/>
<path d="M0 0 C1.20214142 -0.00540298 2.40428284 -0.01080597 3.64285278 -0.01637268 C6.9322764 -0.0267256 10.22104488 -0.0191705 13.51042557 -0.00266147 C16.95674274 0.01121227 20.4030302 0.00472632 23.84936523 0.00120544 C29.63631615 -0.00149486 35.42305943 0.01196323 41.20996094 0.03515625 C47.89530005 0.06176503 54.58029208 0.06351251 61.26566601 0.05176789 C67.70337033 0.04097921 74.14094941 0.04718567 80.5786438 0.06132317 C83.31538869 0.06707357 86.05204164 0.06700777 88.78878784 0.06225777 C92.61200968 0.05935082 96.43466251 0.07582917 100.2578125 0.09765625 C101.95830246 0.09090378 101.95830246 0.09090378 103.69314575 0.08401489 C105.25764969 0.09887184 105.25764969 0.09887184 106.85375977 0.11402893 C107.75707535 0.11645883 108.66039093 0.11888872 109.59107971 0.12139225 C112.69400484 0.58639423 114.59283362 1.68351528 117.12890625 3.50170898 C118.5732148 6.39032608 118.50579131 8.298186 118.12890625 11.50170898 C116.35987854 14.16148376 116.35987854 14.16148376 113.12890625 16.50170898 C109.11067024 17.25298063 105.13609112 17.17413014 101.05834961 17.1328125 C99.83509476 17.1399678 98.6118399 17.14712311 97.35151672 17.15449524 C94.00398537 17.1684932 90.658002 17.16008968 87.31059718 17.14040494 C83.80508315 17.12399937 80.29961892 17.1328338 76.79408264 17.13792419 C70.90873485 17.14244247 65.02370518 17.12659076 59.13842773 17.09863281 C52.33597967 17.06656686 45.5341048 17.06660303 38.73161596 17.08384758 C32.18388941 17.09971418 25.63637284 17.09297934 19.08865547 17.07591057 C16.30360888 17.06904132 13.51873066 17.07007105 10.73368645 17.07745552 C6.8455916 17.08654295 2.95808538 17.06257943 -0.92993164 17.03515625 C-2.66386673 17.04494507 -2.66386673 17.04494507 -4.43283081 17.05493164 C-6.02051521 17.03584496 -6.02051521 17.03584496 -7.64027405 17.01637268 C-8.55926011 17.01356576 -9.47824617 17.01075884 -10.4250803 17.00786686 C-13.62657522 16.34537587 -14.83223358 14.99925622 -16.87109375 12.50170898 C-17.4375 10.50170898 -17.4375 10.50170898 -17.43359375 8.50170898 C-17.45550781 7.84170898 -17.47742188 7.18170898 -17.5 6.50170898 C-15.06101377 -1.25457021 -6.53351612 -0.0557185 0 0 Z " fill="#000000" transform="translate(116.87109375,302.498291015625)"/>
<path d="M0 0 C0.74093399 -0.0066568 1.48186798 -0.0133136 2.24525452 -0.02017212 C3.81118286 -0.03028944 5.37715424 -0.03498942 6.94311523 -0.03466797 C9.33584774 -0.03904092 11.72673452 -0.07536517 14.11914062 -0.11328125 C15.64192079 -0.11914977 17.16470969 -0.12311893 18.6875 -0.125 C19.40115219 -0.13937103 20.11480438 -0.15374207 20.8500824 -0.16854858 C24.30502011 -0.13685262 26.09576206 0.09208007 28.86181641 2.23754883 C31.45861761 5.7568655 30.88655762 8.04832514 30.41015625 12.3359375 C28.59852358 15.01025239 27.53254548 15.29514109 24.41015625 16.3359375 C22.78296143 16.41737605 21.15263906 16.4434677 19.5234375 16.43359375 C18.58564453 16.43037109 17.64785156 16.42714844 16.68164062 16.42382812 C15.70517578 16.41544922 14.72871094 16.40707031 13.72265625 16.3984375 C12.73458984 16.39392578 11.74652344 16.38941406 10.72851562 16.38476562 C8.28903667 16.3729807 5.84958884 16.35504533 3.41015625 16.3359375 C3.41015625 21.6159375 3.41015625 26.8959375 3.41015625 32.3359375 C4.72371094 32.30113281 6.03726563 32.26632813 7.390625 32.23046875 C9.12628926 32.20232284 10.8619674 32.17502354 12.59765625 32.1484375 C13.89413086 32.11073242 13.89413086 32.11073242 15.21679688 32.07226562 C20.09850847 32.016154 23.47747825 32.08103567 27.41015625 35.3359375 C28.95602501 38.42767502 28.70375146 40.93023302 28.41015625 44.3359375 C27.0625 46.546875 27.0625 46.546875 24.41015625 48.3359375 C20.81537434 48.83021524 17.27989494 48.71125468 13.66015625 48.5859375 C12.67660156 48.56789062 11.69304687 48.54984375 10.6796875 48.53125 C8.25551842 48.48417876 5.83333566 48.41844492 3.41015625 48.3359375 C3.43110352 49.2237793 3.45205078 50.11162109 3.47363281 51.02636719 C3.54191302 54.32888205 3.59200495 57.6306442 3.62988281 60.93359375 C3.64996607 62.36144871 3.67723877 63.78922175 3.71191406 65.21679688 C3.76058294 67.27234118 3.78315592 69.32679605 3.80078125 71.3828125 C3.82172852 72.61870117 3.84267578 73.85458984 3.86425781 75.12792969 C3.41015625 78.3359375 3.41015625 78.3359375 1.60449219 80.73925781 C-1.59488663 83.06724373 -3.73435185 82.88672206 -7.58984375 82.3359375 C-10.49701448 80.11730721 -11.42966018 78.81648821 -12.58984375 75.3359375 C-12.6894187 73.16987835 -12.72813999 71.00085504 -12.73510742 68.83251953 C-12.73846603 68.17687012 -12.74182465 67.5212207 -12.74528503 66.84570312 C-12.75478326 64.67836614 -12.75673763 62.51110651 -12.7578125 60.34375 C-12.76102607 58.83543872 -12.76439021 57.32712776 -12.76789856 55.81881714 C-12.77388714 52.65638507 -12.77573876 49.49398031 -12.77514648 46.33154297 C-12.77504492 42.2841079 -12.78869207 38.23684849 -12.80591869 34.18945503 C-12.81705129 31.07359008 -12.8190653 27.95776741 -12.81853676 24.84188461 C-12.81971517 23.34998851 -12.82412915 21.85809125 -12.83186913 20.36621475 C-12.84169376 18.27673385 -12.83878134 16.18763186 -12.83276367 14.09814453 C-12.83418869 12.91028351 -12.83561371 11.72242249 -12.83708191 10.49856567 C-12.5877598 7.30928002 -12.08875702 5.1518553 -10.58984375 2.3359375 C-6.95306566 -0.08858122 -4.20842778 0.01308758 0 0 Z " fill="#000000" transform="translate(113.58984375,44.6640625)"/>
<path d="M0 0 C1.17288071 -0.0087616 2.34576141 -0.01752319 3.55418396 -0.02655029 C7.43168109 -0.04855913 11.30803812 -0.03398452 15.18554688 -0.01708984 C17.87928185 -0.01820316 20.57299648 -0.02530202 23.26672363 -0.03158569 C28.9124792 -0.04067545 34.55790744 -0.02871247 40.20361328 -0.00488281 C46.72552041 0.02232773 53.24664598 0.01351305 59.76853418 -0.01401484 C65.37383021 -0.03672455 70.97889132 -0.03989708 76.5842185 -0.02682149 C79.92961317 -0.0190368 83.274346 -0.01992762 86.61976624 -0.03450394 C90.34991443 -0.0471894 94.07855777 -0.02786393 97.80859375 0 C98.91420151 -0.01012115 100.01980927 -0.02024231 101.15892029 -0.03067017 C108.62689622 0.07278436 108.62689622 0.07278436 112.58996582 2.99990845 C114.40429688 5.64697266 114.40429688 5.64697266 115.02929688 8.64697266 C114.14898235 12.8724824 112.88904592 14.07313624 109.40429688 16.64697266 C105.54447805 17.39985866 101.73088743 17.32985148 97.80859375 17.29394531 C96.63571304 17.30270691 95.46283234 17.31146851 94.25440979 17.32049561 C90.37691266 17.34250444 86.50055563 17.32792984 82.62304688 17.31103516 C79.9293119 17.31214847 77.23559727 17.31924733 74.54187012 17.32553101 C68.89611455 17.33462076 63.25068631 17.32265778 57.60498047 17.29882812 C51.08307334 17.27161758 44.56194777 17.28043227 38.04005957 17.30796015 C32.43476354 17.33066986 26.82970243 17.33384239 21.22437525 17.32076681 C17.87898058 17.31298211 14.53424775 17.31387293 11.18882751 17.32844925 C7.45867932 17.34113472 3.73003598 17.32180925 0 17.29394531 C-1.10560776 17.30406647 -2.21121552 17.31418762 -3.35032654 17.32461548 C-10.81830247 17.22116095 -10.81830247 17.22116095 -14.78137207 14.29403687 C-16.59570312 11.64697266 -16.59570312 11.64697266 -17.22070312 8.64697266 C-15.2932181 -0.60495544 -7.75841061 -0.07102345 0 0 Z " fill="#000000" transform="translate(210.595703125,339.35302734375)"/>
<path d="M0 0 C1.01828384 -0.00700928 2.03656769 -0.01401855 3.08570862 -0.02124023 C6.45390031 -0.03885492 9.82125279 -0.02718464 13.18945312 -0.01367188 C15.52828127 -0.01636578 17.86710832 -0.02024734 20.20593262 -0.02526855 C25.10858824 -0.03116834 30.01095245 -0.02258486 34.91357422 -0.00390625 C41.20212754 0.01888316 47.48999804 0.0057627 53.77852631 -0.01819611 C58.60834918 -0.03264087 63.4380098 -0.02805407 68.26783752 -0.01768494 C70.58671652 -0.01501401 72.90561018 -0.01830019 75.22447205 -0.02760315 C78.46384781 -0.03774659 81.70211331 -0.02229742 84.94140625 0 C86.38314964 -0.01214539 86.38314964 -0.01214539 87.85401917 -0.02453613 C94.3118845 0.05793651 94.3118845 0.05793651 97.57019043 2.33117676 C99.6207547 5.53240195 99.43561048 7.79831928 98.97070312 11.51757812 C97.63067032 14.06364046 96.88241949 15.22495702 94.12376976 16.11036301 C91.95317787 16.52089272 89.97912482 16.64888181 87.77163696 16.65802002 C86.94180801 16.66373016 86.11197906 16.66944031 85.25700378 16.67532349 C83.90413017 16.67700027 83.90413017 16.67700027 82.52392578 16.67871094 C81.56737595 16.68367584 80.61082611 16.68864075 79.62528992 16.6937561 C76.4617745 16.70835794 73.2983092 16.71517601 70.13476562 16.72070312 C67.93525186 16.72645564 65.73573811 16.73221337 63.53622437 16.73797607 C58.92453783 16.74848004 54.31286869 16.75432685 49.70117188 16.7578125 C43.79409182 16.7632998 37.88724197 16.78733558 31.98023415 16.81578445 C27.43689299 16.83441305 22.8936073 16.83961653 18.35023117 16.84114838 C16.17254755 16.84417428 13.9948649 16.85220068 11.81721878 16.86533356 C8.77005759 16.88240043 5.72345922 16.88051223 2.67626953 16.87402344 C1.32946861 16.88784561 1.32946861 16.88784561 -0.04454041 16.90194702 C-5.11001688 16.86818105 -8.65550293 16.37191687 -13.02929688 13.51757812 C-14.57516563 10.42584061 -14.32289209 7.9232826 -14.02929688 4.51757812 C-10.6308093 -0.83677494 -5.71269818 -0.04812432 0 0 Z " fill="#000000" transform="translate(313.029296875,229.482421875)"/>
<path d="M0 0 C1.28483276 -0.01260864 2.56966553 -0.02521729 3.89343262 -0.03820801 C5.28768464 -0.03104796 6.68193164 -0.02284391 8.07617188 -0.01367188 C9.51436627 -0.01636852 10.95255889 -0.02025238 12.39074707 -0.02526855 C15.40016087 -0.03115562 18.40909871 -0.02262697 21.41845703 -0.00390625 C25.26885108 0.01888377 29.11812981 0.0057563 32.96848297 -0.01819611 C35.93687284 -0.03267606 38.90499988 -0.02803824 41.87339783 -0.01768494 C43.29272088 -0.01502367 44.71206808 -0.01826629 46.13136292 -0.02760315 C48.11751832 -0.03780286 50.10375779 -0.01949036 52.08984375 0 C53.21837769 0.00318237 54.34691162 0.00636475 55.50964355 0.00964355 C59.20929813 0.62875728 60.88921264 1.91827333 63.54492188 4.51757812 C64.20898438 6.51757812 64.20898438 6.51757812 64.16992188 8.51757812 C64.18925781 9.50757813 64.18925781 9.50757813 64.20898438 10.51757812 C63.17042217 13.64548311 61.24654036 14.7170753 58.54492188 16.51757812 C55.50964355 17.0255127 55.50964355 17.0255127 52.08984375 17.03515625 C50.80501099 17.04776489 49.52017822 17.06037354 48.19641113 17.07336426 C46.80215911 17.06620421 45.40791211 17.05800016 44.01367188 17.04882812 C42.57547748 17.05152477 41.13728486 17.05540863 39.69909668 17.0604248 C36.68968288 17.06631187 33.68074504 17.05778322 30.67138672 17.0390625 C26.82099267 17.01627248 22.97171394 17.02939995 19.12136078 17.05335236 C16.15297091 17.06783231 13.18484387 17.06319449 10.21644592 17.05284119 C8.79712287 17.05017992 7.37777567 17.05342254 5.95848083 17.0627594 C3.97232543 17.07295911 1.98608596 17.05464661 0 17.03515625 C-1.12853394 17.03197388 -2.25706787 17.0287915 -3.4197998 17.0255127 C-7.11945438 16.40639897 -8.79936889 15.11688292 -11.45507812 12.51757812 C-12.11914062 10.51757812 -12.11914062 10.51757812 -12.08007812 8.51757812 C-12.09296875 7.85757812 -12.10585937 7.19757813 -12.11914062 6.51757812 C-10.26379252 0.92970617 -5.24585675 0.01479289 0 0 Z " fill="#000000" transform="translate(111.455078125,339.482421875)"/>
<path d="M0 0 C0.91471573 -0.00619858 1.82943146 -0.01239716 2.77186584 -0.01878357 C4.70426368 -0.02587983 6.63672268 -0.02271109 8.5690918 -0.01000977 C11.52181907 0.00384368 14.47136913 -0.03020119 17.42382812 -0.06835938 C19.30338619 -0.06931073 21.18294821 -0.06745089 23.0625 -0.0625 C23.94284409 -0.07575821 24.82318817 -0.08901642 25.73020935 -0.10267639 C30.16617757 -0.03549706 32.03643409 0.13644739 35.66235352 2.91430664 C37.59765625 5.56640625 37.59765625 5.56640625 38.09765625 8.62890625 C37.55020817 11.84516372 36.89008715 13.27397535 34.59765625 15.56640625 C30.64991931 16.88231856 26.8485151 16.76863586 22.73046875 16.8046875 C21.85873016 16.81275925 20.98699158 16.82083099 20.08883667 16.82914734 C18.24462871 16.84297287 16.40039533 16.85370187 14.55615234 16.86157227 C11.74006643 16.87879974 8.9251504 16.9227003 6.109375 16.96679688 C4.31641487 16.97692303 2.52344478 16.98543937 0.73046875 16.9921875 C-0.10926483 17.00969559 -0.94899841 17.02720367 -1.81417847 17.04524231 C-5.88359621 17.0301869 -7.90441829 16.87874751 -11.43383789 14.66479492 C-13.40234375 12.56640625 -13.40234375 12.56640625 -14.03125 10.56640625 C-14.00933594 9.90640625 -13.98742187 9.24640625 -13.96484375 8.56640625 C-13.96613281 7.90640625 -13.96742187 7.24640625 -13.96875 6.56640625 C-11.97334549 -0.47943588 -6.10766274 -0.03433171 0 0 Z " fill="#000000" transform="translate(113.40234375,192.43359375)"/>
</svg>
