<?xml version="1.0" encoding="UTF-8"?>
<svg version="1.1" xmlns="http://www.w3.org/2000/svg" width="512" height="512">
<path d="M0 0 C0.71783399 -0.00380567 1.43566799 -0.00761134 2.17525452 -0.01153234 C4.59919341 -0.02190201 7.02290045 -0.01793213 9.44685555 -0.01409245 C11.19479894 -0.01854193 12.94274032 -0.02385502 14.69067872 -0.02996117 C19.50853034 -0.0441862 24.32631759 -0.04580361 29.14418721 -0.04536426 C34.33447632 -0.0470085 39.52473859 -0.06006755 44.7150135 -0.07155704 C56.07018095 -0.09443596 67.42532974 -0.10233062 78.7805171 -0.10738349 C85.86640356 -0.11063687 92.95228457 -0.11715712 100.03816795 -0.12438488 C119.6449758 -0.14395384 139.25177856 -0.16035656 158.8585968 -0.16326141 C160.1140008 -0.16344898 161.3694048 -0.16363655 162.66285134 -0.16382981 C165.20801616 -0.16419607 167.75318097 -0.16455976 170.29834579 -0.16492092 C171.56182209 -0.16510373 172.82529839 -0.16528654 174.12706184 -0.16547489 C175.39207445 -0.16565544 176.65708706 -0.16583599 177.96043338 -0.16602201 C198.46873384 -0.16956539 218.97692941 -0.19659669 239.48519348 -0.23397278 C260.52501912 -0.27201182 281.56479266 -0.29141856 302.60465348 -0.29172093 C314.42416545 -0.29230646 326.24355229 -0.30086003 338.06303215 -0.32971859 C348.12543185 -0.35417353 358.18766077 -0.36155523 368.25008212 -0.34647106 C373.3869233 -0.33927824 378.52342684 -0.3402614 383.66023064 -0.36288166 C388.35941525 -0.38337718 393.05800064 -0.38096014 397.75717808 -0.36000682 C399.46040068 -0.35649378 401.16366569 -0.36149806 402.8668326 -0.37571125 C405.17676699 -0.39375112 407.48456584 -0.38117337 409.79443359 -0.36076355 C411.7211634 -0.36198523 411.7211634 -0.36198523 413.68681705 -0.3632316 C418.03875839 0.44982064 419.47593334 1.65994665 422.02305794 5.26006222 C422.51443545 8.07294958 422.69572529 10.27904359 422.64947033 13.08544827 C422.65643794 13.87072812 422.66340554 14.65600798 422.67058429 15.4650842 C422.68788377 18.10691263 422.66943448 20.74728528 422.65124702 23.38909054 C422.65629024 25.29805497 422.66351732 27.20701467 422.67274517 29.11596346 C422.69172769 34.37005727 422.67939964 39.62368759 422.66202223 44.87776995 C422.64868254 50.54126731 422.66407346 56.20469532 422.67584419 61.868186 C422.69425338 72.96852432 422.68568532 84.06868697 422.66775597 95.16901988 C422.65374247 104.1929255 422.64983449 113.21678336 422.65319824 122.24069881 C422.65367568 123.52403558 422.65415313 124.80737235 422.65464504 126.12959811 C422.65567136 128.73660395 422.65672672 131.34360977 422.6578108 133.95061558 C422.66664443 157.71969882 422.64796536 181.48867828 422.61728057 205.25773781 C422.58944567 226.94246526 422.58444385 248.62708058 422.59947395 270.31182003 C422.60329657 275.86026408 422.60709144 281.40870814 422.61064434 286.95715237 C422.61130106 287.9818536 422.61130106 287.9818536 422.61197105 289.02725587 C422.62322298 307.15449933 422.61577964 325.28173067 422.60276359 343.40897226 C422.60091921 346.008948 422.59908449 348.60892375 422.59725952 351.2088995 C422.59634743 352.48814247 422.59543534 353.76738543 422.59449561 355.08539334 C422.5888937 364.09276874 422.59219445 373.10011573 422.59880447 382.10748959 C422.60654613 393.09333906 422.59975582 404.07906816 422.57462943 415.06489342 C422.56215072 420.66848606 422.55596805 426.27189148 422.5671711 431.87549114 C422.57724296 437.01041795 422.56869086 442.14497213 422.54558992 447.27985376 C422.54044852 449.13254157 422.54195998 450.98526302 422.55098457 452.83793598 C422.63032119 470.61082365 419.29907466 484.75008604 406.71055794 498.07256222 C393.49043453 510.55699579 378.57432624 512.86901782 361.13528633 512.74108028 C359.35039997 512.74282751 357.56551463 512.74633519 355.7806347 512.75143695 C350.90719606 512.76033102 346.0341127 512.74445036 341.16071928 512.7243247 C335.89368718 512.70698337 330.62667367 512.71290112 325.35962105 512.7159338 C316.24447289 512.71802695 307.12943963 512.7055215 298.01432037 512.68298244 C284.83555322 512.65041645 271.65684138 512.64005072 258.47803835 512.63503048 C237.09416902 512.62628504 215.71036087 512.59968985 194.32652473 512.56182003 C173.55927523 512.52508049 152.79204238 512.49677823 132.02476692 512.47978878 C130.74377423 512.47873789 129.46278154 512.47768699 128.14297088 512.47660425 C121.71633859 512.47138394 115.28970619 512.46632915 108.86307371 512.46135664 C55.58302618 512.41991801 2.30304505 512.34949005 -50.97694206 512.26006222 C-50.97694206 511.93006222 -50.97694206 511.60006222 -50.97694206 511.26006222 C-49.86899284 511.14791378 -49.86899284 511.14791378 -48.73866081 511.03349972 C-38.41533603 509.69553386 -29.63032722 506.00246052 -22.47303581 498.24443722 C-16.38777133 490.17312036 -13.66225509 481.07948229 -13.72360897 471.04129505 C-13.71896306 469.83605809 -13.71896306 469.83605809 -13.7142233 468.60647291 C-13.70626479 465.91523534 -13.71250274 463.22422046 -13.71865654 460.53298092 C-13.71580162 458.58359578 -13.71206347 456.63421176 -13.70751804 454.68482983 C-13.69753318 449.32873536 -13.69991152 443.97270635 -13.70424497 438.61660695 C-13.7067201 432.84015807 -13.69765443 427.06372643 -13.6898632 421.2872839 C-13.67781601 411.27828711 -13.67271017 401.26930624 -13.67198181 391.26030254 C-13.67059584 376.11617028 -13.6538249 360.97207847 -13.6338455 345.82796078 C-13.62590513 339.75011766 -13.61851167 333.67227384 -13.61116505 327.59442997 C-13.61034729 326.91922034 -13.60952954 326.24401072 -13.60868701 325.5483402 C-13.58935319 309.48105968 -13.5758096 293.41377533 -13.56361198 277.346488 C-13.56307519 276.64355625 -13.5625384 275.9406245 -13.56198534 275.21639178 C-13.54948537 258.80980697 -13.53870474 242.4032217 -13.52992058 225.99663448 C-13.52685041 220.30205439 -13.52375813 214.60747432 -13.52064323 208.91289425 C-13.52026142 208.21003586 -13.51987961 207.50717747 -13.51948622 206.78302034 C-13.51072527 190.73937702 -13.49957408 174.69574179 -13.47951221 158.65210819 C-13.47866955 157.97803435 -13.47782689 157.3039605 -13.47695869 156.60946017 C-13.46763881 149.2160948 -13.45755418 141.82273075 -13.44689983 134.42936718 C-13.42658234 119.98393694 -13.41632422 105.53856666 -13.41888904 91.09312202 C-13.41992206 81.20167176 -13.41032033 71.31026897 -13.39225001 61.41883527 C-13.38217974 55.70688253 -13.377104 49.9950348 -13.3850174 44.28307629 C-13.39216955 39.05865624 -13.38567404 33.8344412 -13.36813199 28.61004736 C-13.3642336 26.71583644 -13.36545287 24.82160698 -13.37218887 22.92740403 C-13.38059649 20.36040186 -13.37070751 17.79410634 -13.35611629 15.2271471 C-13.36296469 14.48503205 -13.36981308 13.74291701 -13.37686899 12.97831362 C-13.32757739 8.56548644 -12.71165872 5.75621146 -9.97694206 2.26006222 C-6.27108669 -0.21050803 -4.42679328 0.00672527 0 0 Z M313.02305794 68.26006222 C308.42351231 73.97841624 306.74339449 79.41149352 307.08555794 86.69756222 C307.98712028 94.10252931 311.03073561 98.82341162 316.64805794 103.63506222 C322.16891426 107.70997998 328.34294075 110.72403099 334.45909309 113.79668331 C335.6625135 114.40504025 335.6625135 114.40504025 336.89024544 115.02568722 C337.61324837 115.38436886 338.3362513 115.7430505 339.08116341 116.11260128 C341.0911972 117.30032555 342.50689831 118.48979925 344.02305794 120.26006222 C344.63315451 122.98625951 344.52127303 125.51701589 344.02305794 128.26006222 C341.80440783 131.1258186 339.8703685 131.29629361 336.33555794 132.13506222 C329.69711795 132.72624055 324.21070261 130.16018116 318.77305794 126.57256222 C316.44005351 125.04962877 315.0271982 124.26100319 312.27305794 123.63506222 C308.86174223 124.58264991 307.83575589 126.28205843 306.02305794 129.26006222 C304.76219176 132.96385661 304.76695387 134.61306246 306.21055794 138.26006222 C310.16225777 143.552268 318.60021884 147.20135248 325.02305794 148.26006222 C336.25872116 148.97251072 345.95107398 148.89119868 355.39805794 142.01006222 C361.33449065 135.79094223 363.40834006 128.70716872 363.29649544 120.24053097 C362.63703511 113.0524134 359.73965751 106.86625079 354.40587044 101.98271847 C347.60465241 97.06577232 339.79722277 93.60494846 332.27305794 89.94756222 C329.4832966 88.49903229 327.9339465 87.65011619 326.02305794 85.26006222 C326.08555794 81.69756222 326.08555794 81.69756222 327.02305794 78.26006222 C331.81075758 74.82101037 338.43844846 75.78157671 344.02305794 76.26006222 C346.18321419 76.97099972 346.18321419 76.97099972 347.89805794 77.82256222 C351.84671757 79.63894565 353.90750336 79.60553198 358.02305794 78.26006222 C360.38491474 75.08631714 361.00668651 73.07863379 361.08555794 69.13506222 C359.60077383 65.1174111 357.80872287 64.18730982 354.02305794 62.26006222 C341.16514437 57.49787201 323.32147316 58.56582069 313.02305794 68.26006222 Z M47.37692451 62.31206417 C45.29929344 65.30144388 45.59741778 68.38382632 45.6190052 71.89678097 C45.61214195 72.67268581 45.6052787 73.44859066 45.59820747 74.24800777 C45.57989447 76.81471165 45.58378286 79.38080699 45.58946419 81.94756222 C45.58490486 83.72970943 45.57960003 85.51185489 45.57357979 87.29399776 C45.5646401 91.02982887 45.56708189 94.7654463 45.57701302 98.50127316 C45.5885097 103.29345648 45.56828515 108.08490372 45.53909588 112.87699032 C45.52076879 116.55726985 45.52101922 120.23737181 45.5267334 123.91768551 C45.52688701 125.68476552 45.52080981 127.45185727 45.50844193 129.218894 C45.49359737 131.68751674 45.50415909 134.15476438 45.52134895 136.62334347 C45.51168098 137.35590359 45.50201302 138.08846371 45.49205208 138.84322262 C45.53992166 142.11879588 45.58533255 143.80852811 47.91574287 146.2124548 C50.29994594 147.39771127 51.86916843 147.66232821 54.52305794 147.63506222 C55.27587044 147.64279659 56.02868294 147.65053097 56.80430794 147.65849972 C59.84789527 147.11194002 60.91651981 146.58505414 63.02305794 144.26006222 C63.60498692 141.03115049 63.4866861 137.83204382 63.41368294 134.56084347 C63.40802315 133.61065838 63.40236336 132.66047329 63.39653206 131.68149471 C63.37412941 128.64467278 63.32392564 125.60902791 63.27305794 122.57256222 C63.25299798 120.51463654 63.23474633 118.45669238 63.21837044 116.39873409 C63.17425181 111.35205615 63.10519724 106.30625878 63.02305794 101.26006222 C63.68305794 101.26006222 64.34305794 101.26006222 65.02305794 101.26006222 C65.2615345 102.08119503 65.50001106 102.90232784 65.74571419 103.74834347 C67.2635532 107.92124033 69.2702641 111.5961475 71.46055794 115.44756222 C71.89577766 116.21914669 72.33099739 116.99073116 72.77940559 117.78569698 C73.70711305 119.42642898 74.63752479 121.0656344 75.57042122 122.70342159 C77.05427936 125.31501191 78.52144494 127.93554331 79.98790169 130.55693722 C80.95712374 132.27094851 81.927154 133.98450307 82.89805794 135.69756222 C83.34979378 136.5079797 83.80152962 137.31839718 84.26695442 138.15337276 C87.23429367 143.56580822 87.23429367 143.56580822 92.02305794 147.26006222 C94.24249026 147.69313228 94.24249026 147.69313228 96.52305794 147.57256222 C97.27587044 147.56869503 98.02868294 147.56482784 98.80430794 147.56084347 C101.27280651 147.22620546 102.91158229 146.57047364 105.02305794 145.26006222 C106.52927142 142.24763525 106.18783178 139.13389788 106.20005989 135.82866573 C106.20663109 135.06266048 106.21320229 134.29665524 106.21997261 133.50743771 C106.23971382 130.96794703 106.25136826 128.42851542 106.26133919 125.88896847 C106.26541471 125.02297464 106.26949024 124.15698082 106.27368927 123.26474476 C106.29455073 118.68367786 106.30885369 114.10264096 106.31822395 109.52153683 C106.32930553 104.78207855 106.36372502 100.04308758 106.40339565 95.30379486 C106.42949182 91.66558595 106.43790939 88.02748973 106.44150543 84.38919544 C106.44638737 82.64163134 106.45804683 80.8940728 106.47654343 79.14659977 C106.50079334 76.70430267 106.49999671 74.26323289 106.49302864 71.82085323 C106.5058387 71.09607281 106.51864876 70.37129238 106.531847 69.62454891 C106.49794201 66.37286585 106.4531437 64.70582522 104.14602852 62.31461239 C101.61964544 61.0596738 99.838934 60.82685471 97.02305794 60.82256222 C96.17743294 60.80322628 95.33180794 60.78389034 94.46055794 60.76396847 C91.04787107 61.45853775 90.09965791 62.44761889 88.02305794 65.26006222 C87.40459318 68.37309745 87.41812302 71.45307293 87.41368294 74.61943722 C87.39714668 75.52381527 87.38061043 76.42819332 87.36357307 77.35997677 C87.31505815 80.24340742 87.2937145 83.12631056 87.27305794 86.01006222 C87.24490116 87.96712006 87.21497414 89.92415329 87.18321419 91.88115597 C87.10929825 96.67408129 87.05974496 101.46671318 87.02305794 106.26006222 C86.60395149 105.40811024 86.60395149 105.40811024 86.17637825 104.53894711 C81.34124789 94.7179128 76.42168253 84.95054745 71.21055794 75.32256222 C70.76736214 74.48950558 70.32416634 73.65644894 69.86754036 72.79814816 C67.42391502 68.33352411 65.12691908 64.41157696 61.02305794 61.26006222 C58.01606479 60.55029079 58.01606479 60.55029079 54.89805794 60.76006222 C53.86422981 60.77037472 52.83040169 60.78068722 51.76524544 60.79131222 C49.09280911 61.06524255 49.09280911 61.06524255 47.37692451 62.31206417 Z M126.24887276 62.30702877 C124.34876743 65.33437776 124.59771236 68.43176406 124.6190052 71.89678097 C124.61214195 72.67268581 124.6052787 73.44859066 124.59820747 74.24800777 C124.57989447 76.81471165 124.58378286 79.38080699 124.58946419 81.94756222 C124.58490486 83.72970943 124.57960003 85.51185489 124.57357979 87.29399776 C124.5646401 91.02982887 124.56708189 94.7654463 124.57701302 98.50127316 C124.5885097 103.29345648 124.56828515 108.08490372 124.53909588 112.87699032 C124.52076879 116.55726985 124.52101922 120.23737181 124.5267334 123.91768551 C124.52688701 125.68476552 124.52080981 127.45185727 124.50844193 129.218894 C124.49359737 131.68751674 124.50415909 134.15476438 124.52134895 136.62334347 C124.51168098 137.35590359 124.50201302 138.08846371 124.49205208 138.84322262 C124.53822456 142.00266884 124.61715421 143.80220994 126.75361824 146.21210384 C129.30892511 147.392067 131.02698901 147.64593543 133.83580208 147.66411495 C134.78681297 147.67679913 135.73782387 147.6894833 136.71765327 147.70255184 C137.73753838 147.6996162 138.75742348 147.69668056 139.80821419 147.69365597 C140.86084953 147.69889782 141.91348488 147.70413967 142.99801826 147.70954037 C145.22128098 147.71595922 147.44457766 147.71462536 149.66783333 147.70610714 C153.07656623 147.6975847 156.48363069 147.72638204 159.89219856 147.75810909 C162.05170327 147.75972082 164.21121095 147.75914412 166.37071419 147.75615597 C167.90357819 147.77300694 167.90357819 147.77300694 169.46740913 147.79019833 C170.41526787 147.78081738 171.3631266 147.77143642 172.33970833 147.7617712 C173.59069061 147.76152195 173.59069061 147.76152195 174.86694527 147.76126766 C177.17655328 147.42848874 177.17655328 147.42848874 178.79232979 145.44745541 C180.59080768 142.25099136 180.40904374 139.86259639 180.02305794 136.26006222 C179.1054173 133.93449629 179.1054173 133.93449629 177.02305794 132.26006222 C174.2373344 131.90407144 171.85269203 131.79295417 169.07383919 131.86943722 C167.91491409 131.8779269 167.91491409 131.8779269 166.73257637 131.8865881 C164.26627164 131.90896895 161.80142302 131.95916519 159.33555794 132.01006222 C157.66305289 132.03012516 155.99052505 132.04837629 154.31797981 132.06474972 C150.21866113 132.10543774 146.12248788 132.18371484 142.02305794 132.26006222 C142.02305794 125.33006222 142.02305794 118.40006222 142.02305794 111.26006222 C151.21055794 111.51006222 151.21055794 111.51006222 154.07847786 111.62041378 C158.20535567 111.6747321 160.47772763 111.58393859 164.10118294 109.43193722 C166.27110091 107.35416323 166.27110091 107.35416323 166.58555794 104.26006222 C165.86788704 100.43248411 165.21750334 99.5014422 162.02305794 97.26006222 C158.59126854 96.76410152 155.23116022 96.88509722 151.77305794 97.01006222 C148.55555794 97.09256222 145.33805794 97.17506222 142.02305794 97.26006222 C142.02305794 90.33006222 142.02305794 83.40006222 142.02305794 76.26006222 C145.63501106 76.32967159 145.63501106 76.32967159 149.31993294 76.40068722 C151.65650005 76.43189734 153.99304379 76.45617667 156.32969856 76.47978878 C157.95154937 76.49988365 159.57332791 76.52716476 161.19493294 76.56182003 C163.52844774 76.61043492 165.86100351 76.6330511 168.19493294 76.65068722 C168.91799629 76.67133236 169.64105965 76.6919775 170.38603401 76.71324825 C173.8715695 76.71479596 175.68390626 76.52181092 178.48130989 74.36284542 C181.06652274 70.83688528 180.49945863 68.54766848 180.02305794 64.26006222 C178.42727609 62.02237439 177.54641149 61.35065269 174.82225227 60.87911129 C173.96748299 60.87672451 173.1127137 60.87433773 172.23204231 60.87187862 C170.77538155 60.8576939 170.77538155 60.8576939 169.28929329 60.84322262 C168.24237312 60.84929531 167.19545296 60.855368 166.11680794 60.86162472 C165.0405616 60.85875454 163.96431526 60.85588436 162.8554554 60.85292721 C160.57912355 60.85088497 158.30277422 60.85642592 156.02647591 60.86894894 C152.53665721 60.88499967 149.04799675 60.86910494 145.55821419 60.84990597 C143.34857621 60.85188837 141.13893895 60.85573198 138.92930794 60.86162472 C137.35892769 60.85251568 137.35892769 60.85251568 135.75682259 60.84322262 C134.78571541 60.8526791 133.81460823 60.86213558 132.81407356 60.87187862 C131.53191963 60.87545879 131.53191963 60.87545879 130.2238636 60.87911129 C128.00534111 61.12943532 128.00534111 61.12943532 126.24887276 62.30702877 Z M188.02305794 66.26006222 C188.11457192 68.17254605 188.11457192 68.17254605 188.71202278 70.29497433 C188.91398262 71.10280361 189.11594246 71.9106329 189.32402229 72.74294186 C190.44155175 76.7669944 191.68843395 80.7366711 192.99962044 84.70146847 C193.28606926 85.57926464 193.57251808 86.45706081 193.86764717 87.36145687 C194.78984517 90.18335939 195.71835881 93.00312285 196.64805794 95.82256222 C197.28612321 97.76278777 197.92406219 99.70305486 198.5618763 101.643363 C199.50924525 104.52467289 200.45713344 107.40580388 201.40713692 110.2862463 C203.15667529 115.59647903 204.87344916 120.91475146 206.55040169 126.24834347 C207.07996468 127.90917965 207.07996468 127.90917965 207.62022591 129.60356808 C208.24166403 131.55511011 208.85225485 133.51015676 209.44932747 135.46929073 C211.08982994 140.55194484 212.7038852 143.83474672 217.02305794 147.26006222 C222.04428269 148.9338038 226.37354952 148.78914982 231.33555794 147.19756222 C237.60973535 142.67431804 238.24503149 133.45538126 239.71055794 126.32256222 C239.93549934 125.25715206 240.16044075 124.19174191 240.39219856 123.09404659 C240.94229746 120.4840029 241.48572214 117.87275786 242.02305794 115.26006222 C243.39954663 118.96841075 244.35283476 122.65021816 245.13633919 126.51787472 C245.33292122 127.47307003 245.52950325 128.42826534 245.73204231 129.41240597 C246.13545382 131.39943613 246.52602682 133.38911468 246.90391731 135.38115597 C248.08946428 141.17334965 248.08946428 141.17334965 251.50352669 145.87724972 C257.01383026 148.90150935 261.67713318 148.85648377 267.71055794 147.32256222 C275.65444829 142.37636634 277.4554446 129.45274235 280.29649544 120.90068722 C280.65881201 119.81365631 280.65881201 119.81365631 281.0284481 118.70466518 C282.30228604 114.88160553 283.57050714 111.0567368 284.83409309 107.23027706 C286.13793467 103.28573721 287.46139006 99.34806718 288.78923798 95.41155529 C289.8107482 92.37139293 290.81762502 89.32653031 291.82056236 86.28019619 C292.30230796 84.82552949 292.7895662 83.37267619 293.2824688 81.92175198 C293.9685843 79.89769058 294.6336627 77.86783261 295.29405403 75.83525753 C295.86886009 74.10725918 295.86886009 74.10725918 296.4552784 72.34435177 C297.10219232 68.83018877 296.75433926 67.3424802 295.02305794 64.26006222 C290.76636996 60.51933642 286.37791278 60.94507076 281.02305794 61.26006222 C278.11307748 67.54017469 276.18331311 74.01932896 274.23008919 80.65068722 C273.70375137 82.42303738 273.70375137 82.42303738 273.16678047 84.23119259 C272.42936739 86.71838811 271.69408269 89.20621553 270.96080208 91.69463253 C270.20824946 94.24635573 269.45354084 96.79728113 268.69420052 99.34697628 C267.59760142 103.03026053 266.50665809 106.71517028 265.41758919 110.40068722 C265.07701988 111.54442806 264.73645058 112.68816891 264.38556099 113.86656857 C264.07491203 114.92486874 263.76426308 115.98316891 263.44420052 117.07353878 C263.03141602 118.47083218 263.03141602 118.47083218 262.61029243 119.89635372 C261.90250373 122.33938431 261.90250373 122.33938431 262.02305794 125.26006222 C261.36305794 125.26006222 260.70305794 125.26006222 260.02305794 125.26006222 C259.86631599 124.22281002 259.86631599 124.22281002 259.70640755 123.16460323 C258.37521912 114.74530466 256.56808395 106.48544698 254.58555794 98.19756222 C254.28272598 96.88052736 253.97999114 95.56347017 253.67735481 94.24639034 C253.38022591 93.0018005 253.083097 91.75721066 252.77696419 90.47490597 C252.51214241 89.35205196 252.24732063 88.22919796 251.97447395 87.07231808 C251.02637151 84.26985669 250.35703147 83.01933499 248.02305794 81.26006222 C245.89260274 80.61165907 245.89260274 80.61165907 243.58555794 80.44756222 C242.823722 80.35861691 242.06188606 80.26967159 241.27696419 80.17803097 C238.61380952 80.27495687 237.27420732 80.84985944 235.02305794 82.26006222 C232.06603082 89.39797599 230.53880172 97.02248185 228.80601692 104.53667355 C228.33214634 106.58732573 227.84891122 108.63562141 227.36485481 110.68389034 C227.05895759 111.99691135 226.7535994 113.31005809 226.44883919 114.62334347 C226.17467171 115.80194942 225.90050423 116.98055538 225.61802864 118.19487667 C224.89602497 121.39411473 224.89602497 121.39411473 225.02305794 125.26006222 C224.36305794 125.26006222 223.70305794 125.26006222 223.02305794 125.26006222 C222.76258675 124.02038692 222.50211555 122.78071163 222.2337513 121.50347042 C220.94631166 115.71996594 219.31151666 110.05157326 217.65196419 104.36553097 C217.32896843 103.2557539 217.00597267 102.14597683 216.67318916 101.00257015 C215.99319508 98.67166159 215.31153198 96.34123934 214.62828255 94.01128292 C213.58438079 90.44353907 212.55265905 86.87240837 211.52110481 83.30107784 C210.85713877 81.03067682 210.19245036 78.76048689 209.52696419 76.49053097 C209.22061546 75.42384686 208.91426674 74.35716274 208.59863472 73.25815487 C208.30500542 72.26644787 208.01137611 71.27474087 207.70884895 70.25298214 C207.45506981 69.38300091 207.20129066 68.51301968 206.93982124 67.61667538 C205.93728338 65.03957189 204.934182 63.26279538 203.02305794 61.26006222 C196.47826824 60.52113435 192.77254895 61.51057121 188.02305794 66.26006222 Z M46.64805794 186.44756222 C44.2226736 190.6453428 42.54265716 194.50276191 43.39805794 199.41240597 C44.9004919 203.99653686 46.77977987 206.75267063 51.02305794 209.26006222 C57.2760344 211.57193866 63.1718357 211.54088559 69.78929329 211.5140295 C71.56107626 211.51870947 71.56107626 211.51870947 73.36865282 211.52348399 C76.63442896 211.53006688 79.90005565 211.52771673 83.16582799 211.52151155 C86.69280547 211.5169791 90.21976303 211.52397476 93.74673653 211.5294714 C100.65101313 211.53835857 107.55524621 211.5364464 114.45952451 211.53064612 C120.07142962 211.52612698 125.68332255 211.52551782 131.29522896 211.52769375 C132.09433887 211.52800021 132.89344878 211.52830668 133.71677414 211.52862243 C135.34021628 211.52926189 136.96365843 211.52991032 138.58710057 211.53056762 C153.8054856 211.53626893 169.02384653 211.52971613 184.24222761 211.51896688 C197.29662453 211.51003155 210.35098588 211.51158365 223.40538216 211.52080441 C238.56979632 211.53151054 253.73418936 211.53571963 268.89860678 211.52957988 C270.51603349 211.52894279 272.1334602 211.52831405 273.75088692 211.52769375 C274.54666489 211.5273852 275.34244285 211.52707665 276.16233531 211.52675875 C281.76665626 211.52503284 287.3709638 211.52794467 292.97528267 211.53265285 C299.80627563 211.53826549 306.63722263 211.53673717 313.46821034 211.52609137 C316.95261039 211.52083982 320.43693385 211.51876909 323.92133331 211.52538967 C327.69990641 211.53084551 331.47826331 211.52401016 335.25682259 211.5140295 C336.90580158 211.52072167 336.90580158 211.52072167 338.58809328 211.52754903 C348.44982131 211.51614163 348.44982131 211.51614163 356.83555794 206.82256222 C360.77384657 202.20913839 361.46851674 199.66987809 361.33946419 193.76787472 C360.87263777 190.06784309 359.49742213 188.00192525 357.02305794 185.26006222 C352.45951984 181.9514971 348.55995883 181.13651458 343.00855827 181.12863445 C341.99185956 181.12479331 340.97516084 181.12095216 339.92765307 181.11699462 C338.81249544 181.1178611 337.69733781 181.11872758 336.54838753 181.11962032 C334.76925716 181.11516364 334.76925716 181.11516364 332.95418477 181.11061692 C329.66079309 181.10343697 326.36745358 181.10075763 323.07405782 181.10001945 C319.52247041 181.09816803 315.9708943 181.09062024 312.41931343 181.08388424 C304.65273347 181.07030395 296.88615868 181.06427667 289.11956882 181.05987358 C284.26974249 181.05711065 279.41991814 181.0528732 274.57009315 181.04836941 C261.14138476 181.03617714 247.71267797 181.02587774 234.28396416 181.02249432 C232.99483132 181.02216497 232.99483132 181.02216497 231.67965539 181.02182896 C230.8181816 181.02161069 229.95670781 181.02139241 229.06912875 181.02116752 C227.32346582 181.02072405 225.5778029 181.02027749 223.83213997 181.01982784 C222.96623156 181.01960641 222.10032315 181.01938498 221.20817509 181.01915684 C207.17821424 181.01520906 193.14830533 180.99775544 179.11836454 180.97446832 C164.71279912 180.9507508 150.30725977 180.93829228 135.90167451 180.9371264 C127.81397119 180.93620986 119.72633556 180.93046296 111.63865089 180.91230679 C104.75161136 180.8969004 97.86466042 180.8917885 90.97760692 180.90004489 C87.46470902 180.90394951 83.95198952 180.90303117 80.43911362 180.88898754 C76.62780943 180.87631377 72.81696373 180.88212062 69.00566292 180.89256954 C67.89942817 180.88451314 66.79319343 180.87645673 65.65343642 180.86815619 C58.47916473 180.91418479 52.16442635 181.36669658 46.64805794 186.44756222 Z M45.58555794 248.13506222 C43.18646745 252.93324319 42.50981064 255.63477909 44.14805794 260.82256222 C46.36670028 264.89007318 48.81209451 268.1545805 53.02305794 270.26006222 C54.64760316 270.3573337 56.27612533 270.39105157 57.90357685 270.39428329 C58.94129394 270.39874114 59.97901102 270.40319898 61.04817408 270.40779191 C62.77152719 270.40751537 62.77152719 270.40751537 64.52969551 270.40723324 C65.743364 270.41090993 66.9570325 270.41458661 68.20747882 270.41837472 C71.58712843 270.42751391 74.96672943 270.43211395 78.34638679 270.43476403 C81.9872907 270.43866262 85.62818048 270.44824133 89.26907539 270.45697689 C98.06775514 270.47675488 106.86643607 270.48680963 115.66513249 270.49570468 C119.80691603 270.50008578 123.94869828 270.50545309 128.0904808 270.51069355 C141.85623821 270.52770788 155.62199481 270.54220219 169.38776112 270.54944229 C172.96142452 270.55135224 176.53508792 270.55327256 180.1087513 270.55522823 C180.99698732 270.55571197 181.88522335 270.55619571 182.80037562 270.55669411 C197.19004721 270.56499485 211.57963568 270.59033156 225.96927097 270.62280891 C240.73750183 270.65586938 255.50569044 270.67389017 270.2739585 270.67708653 C278.56792242 270.67925267 286.86176517 270.68801637 295.15569305 270.71354771 C302.21922655 270.73524099 309.28260945 270.74331197 316.34617247 270.73358092 C319.95012053 270.72903206 323.55375779 270.73095602 327.15766335 270.75034237 C331.06573905 270.77118328 334.97338523 270.76100189 338.88150215 270.74780941 C340.01925061 270.75877866 341.15699908 270.7697479 342.32922477 270.78104955 C348.79072498 270.72828235 352.77032244 270.11821156 358.02305794 266.26006222 C361.45847548 262.49218491 361.54506404 258.59746657 361.36290169 253.69365597 C360.83742465 249.93075717 359.63357573 248.0011059 357.02305794 245.26006222 C350.70985092 240.78583752 344.50758678 240.69177812 336.99144173 240.75212765 C335.19493416 240.7427677 335.19493416 240.7427677 333.3621335 240.73321867 C330.0546686 240.7200648 326.74811787 240.72474302 323.44070935 240.73716354 C319.86735345 240.74623692 316.29407577 240.73223302 312.72073555 240.72124386 C305.72731815 240.70347834 298.7340727 240.70728979 291.74064863 240.71889442 C286.05582482 240.72793624 280.37104911 240.72914951 274.68622017 240.72479916 C273.47153946 240.72387976 273.47153946 240.72387976 272.23231974 240.72294179 C270.58713685 240.72166286 268.94195397 240.720366 267.29677111 240.71905142 C251.87802871 240.70765139 236.45938151 240.72075025 221.04065472 240.74225289 C207.81713078 240.76012336 194.59374731 240.75701909 181.37022591 240.73857784 C166.00581345 240.71716092 150.64148438 240.70874997 135.27705908 240.7210269 C133.63800463 240.72230106 131.99895018 240.72355855 130.35989571 240.72479916 C129.553497 240.72541626 128.74709829 240.72603336 127.91626325 240.72666916 C122.239749 240.7301196 116.56328774 240.72430033 110.88678169 240.71488094 C103.96685859 240.70365044 97.04711693 240.70672301 90.12721455 240.72800392 C86.59805196 240.73850032 83.06919164 240.74266059 79.54003143 240.72940731 C75.7114089 240.71524713 71.88327892 240.73218032 68.05467415 240.75212765 C66.94338599 240.74320476 65.83209783 240.73428187 64.68713427 240.7250886 C56.79713465 240.80486577 50.83802918 241.93983973 45.58555794 248.13506222 Z M46.71055794 306.44756222 C44.58872598 309.98394881 43.27559131 313.1169366 43.02305794 317.26006222 C44.53523754 322.50821497 46.87899105 325.73760536 51.02305794 329.26006222 C53.80540273 330.18751048 55.49327229 330.39130391 58.36761665 330.40723324 C59.6986467 330.41796619 59.6986467 330.41796619 61.05656624 330.42891598 C62.51301552 330.43294933 62.51301552 330.43294933 63.99888802 330.43706417 C65.02356682 330.44363537 66.04824562 330.45020657 67.1039753 330.45697689 C70.50018064 330.47671286 73.89634179 330.4883725 77.29258919 330.49834347 C79.03140641 330.50445676 79.03140641 330.50445676 80.80535126 330.51069355 C86.93952316 330.53155443 93.07367268 330.54585674 99.20787239 330.55522823 C105.54662463 330.56629949 111.88502648 330.600708 118.22365475 330.64039993 C123.09554897 330.66652976 127.96735919 330.67491681 132.83931732 330.67850971 C135.17610417 330.68338415 137.51288706 330.69502239 139.84960556 330.71354771 C143.11970213 330.73786358 146.38888519 330.73698768 149.65904427 330.73003292 C150.62393776 330.74284298 151.58883125 330.75565304 152.58296394 330.76885128 C158.38943661 330.7238429 161.56431143 330.0569271 166.02305794 326.26006222 C168.89871555 322.98776218 169.91474404 320.38652671 170.33555794 316.01006222 C169.9707838 311.63277252 168.91144675 308.53760756 166.02305794 305.26006222 C160.31106204 301.13956694 154.71096557 300.68591551 147.86265755 300.75835323 C146.87786919 300.75295025 145.89308083 300.74754726 144.87845039 300.74198055 C141.64378914 300.72953785 138.41002565 300.74595393 135.17540169 300.76396847 C132.91673931 300.76381339 130.65807666 300.76232294 128.39941597 300.75955868 C123.67447784 300.75817672 118.94984401 300.77070013 114.22496223 300.79350948 C108.17679438 300.82190942 102.12913124 300.81914946 96.08092594 300.80641937 C91.41999203 300.79945618 86.75917424 300.8072586 82.09825516 300.8196764 C79.86838476 300.82418349 77.63850187 300.8245342 75.40863037 300.820611 C72.29018255 300.81769215 69.17242434 300.83423806 66.0540638 300.85600948 C65.13802376 300.85150784 64.22198372 300.84700619 63.27818489 300.84236813 C56.72421536 300.91817599 51.648448 301.77658513 46.71055794 306.44756222 Z M205.37852669 305.76006222 C202.0006123 310.09825326 200.90117568 312.92889317 200.87588692 318.35716915 C200.86873161 319.41136044 200.86157631 320.46555172 200.85420418 321.55168819 C200.85151527 322.70809811 200.84882637 323.86450802 200.84605598 325.05596066 C200.83948479 326.27410458 200.83291359 327.4922485 200.82614326 328.74730587 C200.80639437 332.78801881 200.79474228 336.82869204 200.78477669 340.86943722 C200.78072823 342.2619774 200.77661128 343.65451738 200.77242661 345.04705715 C200.75337884 351.590443 200.73914744 358.13381759 200.73081464 364.67722583 C200.72104599 372.22298578 200.6947348 379.7684521 200.65431374 387.31410861 C200.6241217 393.15117537 200.60934282 398.9881581 200.60603362 404.82530141 C200.60368646 408.30932065 200.59477032 411.79302606 200.56957245 415.27696133 C200.54189221 419.16693095 200.54613235 423.0565164 200.55308723 426.94658566 C200.54027718 428.09489864 200.52746712 429.24321163 200.51426888 430.42632198 C200.55648933 436.90469753 200.88784756 441.14213706 205.02305794 446.26006222 C211.22473733 451.38794547 217.70640605 450.82740538 225.48228645 450.77764034 C226.84303217 450.783067 228.20377201 450.79019272 229.56450081 450.79888058 C233.2442716 450.81705088 236.92359171 450.81007329 240.60336995 450.79736423 C244.46161591 450.78720578 248.31982443 450.7966376 252.17807198 450.8029089 C258.65503525 450.81017618 265.13181579 450.80062094 271.6087513 450.78154659 C279.08940911 450.75977028 286.56963095 450.76683818 294.05027825 450.78885221 C300.48276956 450.80702156 306.91512986 450.80955736 313.34763855 450.79909754 C317.18529876 450.79287217 321.02275422 450.79200064 324.86040115 450.80524349 C328.46802941 450.81682423 332.07509699 450.80873657 335.68266487 450.78566647 C337.63282698 450.77788145 339.58303668 450.78971568 341.53317451 450.80217648 C350.07620422 450.71976209 350.07620422 450.71976209 357.02305794 446.26006222 C361.50481937 441.53604341 362.14176834 437.50944119 362.16349983 431.16368771 C362.16920998 430.16012234 362.17492012 429.15655697 362.1808033 428.12258053 C362.18192116 427.03260769 362.18303902 425.94263485 362.18419075 424.81963253 C362.18915565 423.66293056 362.19412056 422.5062286 362.19923592 421.31447506 C362.21383694 417.48903972 362.2206562 413.66364585 362.22618294 409.83818722 C362.23048171 407.84935747 362.23478101 405.86052772 362.23915744 403.87169814 C362.2509574 398.33008356 362.25850182 392.78847898 362.26195264 387.24685311 C362.26642943 380.09850591 362.28396448 372.9503503 362.31295323 365.80206132 C362.33462676 360.2638575 362.34465995 354.72570736 362.34599376 349.18746161 C362.34703782 345.88566141 362.35432464 342.58408173 362.37081337 339.28231716 C362.38791714 335.5940882 362.38598266 331.90632284 362.37950325 328.21807003 C362.39332542 326.59525616 362.39332542 326.59525616 362.40742683 324.93965816 C362.37094602 318.291903 362.16271934 310.94547269 357.64188194 305.63880444 C353.07820141 301.59585515 349.30432644 301.13727752 343.41932869 301.11962032 C341.70759972 301.11105511 341.70759972 301.11105511 339.96129036 301.10231686 C338.08945076 301.10064007 338.08945076 301.10064007 336.17979622 301.09892941 C334.86236427 301.0939645 333.54493233 301.0889996 332.1875782 301.08388424 C328.57595763 301.07078268 324.96435563 301.06431987 321.35271502 301.05987358 C319.0952832 301.0569397 316.83785644 301.05283434 314.58042717 301.04836941 C307.51432002 301.03470143 300.44822444 301.02503091 293.38210499 301.02116752 C285.23079909 301.01668598 277.07966081 300.9991308 268.92840588 300.97016692 C262.62339693 300.94854228 256.31843511 300.93846285 250.01338947 300.9371264 C246.24946828 300.93607908 242.48570482 300.93018684 238.72182274 300.91230679 C235.18084033 300.89581207 231.64013398 300.89367722 228.09912682 300.90244579 C226.18469166 300.90358156 224.2702656 300.88987566 222.35588264 300.87569332 C215.67551332 300.90813511 210.54812016 301.04480357 205.37852669 305.76006222 Z M46.77305794 366.44756222 C44.57595647 369.97861816 43.28541362 373.08622185 43.02305794 377.26006222 C44.62193801 383.15593247 47.246831 385.80491933 52.02305794 389.26006222 C54.3290902 390.41307835 55.64371181 390.39052326 58.20939827 390.40050411 C59.08696281 390.40621426 59.96452736 390.4119244 60.86868477 390.41780758 C62.31650085 390.41948437 62.31650085 390.41948437 63.79356575 390.42119503 C65.31573456 390.42864239 65.31573456 390.42864239 66.86865425 390.4362402 C70.2378373 390.45088778 73.60697323 390.45766868 76.97618294 390.46318722 C79.31307667 390.4689372 81.64997039 390.47469495 83.98686409 390.48046017 C88.89297392 390.490978 93.79906732 390.49681533 98.70518684 390.50029659 C104.99121754 390.50577833 111.27703131 390.52979641 117.562994 390.55826855 C122.39285604 390.57689605 127.22266588 390.58210063 132.05256081 390.58363247 C134.36979799 390.58666003 136.68703423 390.59469199 139.00423622 390.60781765 C142.24798227 390.62487763 145.49119925 390.6229976 148.734972 390.61650753 C149.6920858 390.62572231 150.6491996 390.6349371 151.63531685 390.64443111 C156.85558453 390.61172293 160.51901399 390.20205955 165.02305794 387.26006222 C168.40083784 383.60840827 169.85560916 381.00152953 170.33555794 376.01006222 C169.97075762 371.63245839 168.91104149 368.5381494 166.02305794 365.26006222 C160.28453893 361.11083946 154.63697543 360.68641886 147.75499153 360.75835323 C146.75884331 360.75295025 145.76269508 360.74754726 144.73636055 360.74198055 C141.46443076 360.72953754 138.19338836 360.74595299 134.92149544 360.76396847 C132.63801719 360.7638134 130.35453867 360.76232317 128.07106209 360.75955868 C123.29485062 360.75817675 118.51894021 360.77070063 113.7427845 360.79350948 C107.62501778 360.82192537 101.5077498 360.81914512 95.38994598 360.80641937 C90.67844072 360.79946128 85.9670505 360.80725251 81.25555992 360.8196764 C78.99974318 360.82418733 76.74391408 360.82453084 74.48809624 360.820611 C71.33591862 360.81769676 68.18442625 360.83421557 65.03233528 360.85600948 C64.10334923 360.85150784 63.17436317 360.84700619 62.21722603 360.84236813 C55.88413066 360.91502392 51.47517651 361.87605805 46.77305794 366.44756222 Z M46.77305794 426.44756222 C44.57595647 429.97861816 43.28541362 433.08622185 43.02305794 437.26006222 C44.62193801 443.15593247 47.246831 445.80491933 52.02305794 449.26006222 C54.3290902 450.41307835 55.64371181 450.39052326 58.20939827 450.40050411 C59.08696281 450.40621426 59.96452736 450.4119244 60.86868477 450.41780758 C62.31650085 450.41948437 62.31650085 450.41948437 63.79356575 450.42119503 C65.31573456 450.42864239 65.31573456 450.42864239 66.86865425 450.4362402 C70.2378373 450.45088778 73.60697323 450.45766868 76.97618294 450.46318722 C79.31307667 450.4689372 81.64997039 450.47469495 83.98686409 450.48046017 C88.89297392 450.490978 93.79906732 450.49681533 98.70518684 450.50029659 C104.99121754 450.50577833 111.27703131 450.52979641 117.562994 450.55826855 C122.39285604 450.57689605 127.22266588 450.58210063 132.05256081 450.58363247 C134.36979799 450.58666003 136.68703423 450.59469199 139.00423622 450.60781765 C142.24798227 450.62487763 145.49119925 450.6229976 148.734972 450.61650753 C149.6920858 450.62572231 150.6491996 450.6349371 151.63531685 450.64443111 C156.85558453 450.61172293 160.51901399 450.20205955 165.02305794 447.26006222 C168.40083784 443.60840827 169.85560916 441.00152953 170.33555794 436.01006222 C169.97103272 431.63575965 169.03637242 428.4999417 166.02305794 425.26006222 C160.19232053 421.17170708 155.79802998 420.68597559 148.77672005 420.75835323 C147.77096428 420.75295025 146.76520851 420.74754726 145.7289753 420.74198055 C142.41914736 420.72951838 139.11019344 420.74596708 135.80040169 420.76396847 C133.49307395 420.76381343 131.18574596 420.76232374 128.87841988 420.75955868 C124.04915504 420.75817584 119.22018762 420.7707148 114.39097786 420.79350948 C108.20480283 420.82190931 102.01912122 420.81915073 95.83290958 420.80641937 C91.07079042 420.79946092 86.30878508 420.8072532 81.54668045 420.8196764 C79.26574388 420.82418813 76.98479509 420.82453014 74.70385742 420.820611 C71.51565096 420.81769683 68.32812208 420.83421586 65.1400013 420.85600948 C64.20009346 420.85150784 63.26018562 420.84700619 62.29179573 420.84236813 C55.92740501 420.91455854 51.50019892 421.85173071 46.77305794 426.44756222 Z " fill="#000000" transform="translate(89.97694206237793,-0.26006221771240234)"/>
<path d="M0 0 C0.82062424 0.00007553 1.64124847 0.00015106 2.48674011 0.00022888 C3.80875175 0.00797081 3.80875175 0.00797081 5.1574707 0.01586914 C6.5161602 0.01799156 6.5161602 0.01799156 7.90229797 0.02015686 C10.79598286 0.02575538 13.68959044 0.03830758 16.58325195 0.05102539 C18.54483938 0.05604058 20.50642801 0.06060346 22.46801758 0.06469727 C27.27729217 0.07572432 32.08650895 0.09298792 36.89575195 0.11352539 C36.98706185 31.53701995 37.05782132 62.96047934 37.10001327 94.38407513 C37.10501592 98.09646371 37.11019322 101.80885204 37.11547852 105.52124023 C37.11652776 106.26028959 37.117577 106.99933895 37.11865804 107.76078375 C37.13604892 119.717143 37.16757932 131.67342509 37.20436314 143.62973861 C37.24180926 155.90397678 37.26399555 168.17817462 37.27210593 180.45246756 C37.27758612 188.02241683 37.29487572 195.59214796 37.32741782 203.16203006 C37.35112153 208.97301695 37.35356253 214.78386501 37.34818268 220.59489059 C37.34928148 222.97406352 37.35721625 225.35324485 37.37257385 227.73236847 C37.39255049 230.9871933 37.38766248 234.24109379 37.37677002 237.49594116 C37.38842139 238.43176793 37.40007275 239.36759469 37.41207719 240.33177984 C37.34499044 247.77644706 35.67860685 254.66123622 30.9309082 260.55102539 C30.27993164 261.06665039 29.62895508 261.58227539 28.95825195 262.11352539 C27.9856543 262.91790039 27.9856543 262.91790039 26.9934082 263.73852539 C20.40430328 268.05764072 13.54643061 267.81454911 5.89575195 267.11352539 C-0.1051842 265.38965398 -4.77494085 261.70472098 -8.18111753 256.45326823 C-11.25027312 250.87815003 -11.673023 246.21319856 -11.61218262 239.92195129 C-11.61842258 238.92225695 -11.62466254 237.9225626 -11.63109159 236.89257449 C-11.64699281 233.55688357 -11.63442827 230.22192627 -11.62182617 226.88623047 C-11.62724844 224.4892484 -11.63437168 222.09226967 -11.64306641 219.69529724 C-11.65939657 213.86994501 -11.65702894 208.04482429 -11.64541584 202.21946505 C-11.6363697 197.48522297 -11.6351626 192.75103865 -11.63951111 188.01679039 C-11.64012404 187.34212978 -11.64073697 186.66746917 -11.64136848 185.9723643 C-11.64264741 184.60169721 -11.64394427 183.23103014 -11.64525884 181.86036309 C-11.65665308 169.02121839 -11.64356779 156.18218812 -11.62205738 143.34306218 C-11.6041752 132.32842306 -11.60730189 121.31395251 -11.62573242 110.29931641 C-11.6471386 97.50039813 -11.65556739 84.70157992 -11.64328337 71.90264624 C-11.64200919 70.53803521 -11.64075171 69.17342416 -11.63951111 67.8088131 C-11.63889401 67.13743365 -11.6382769 66.46605421 -11.6376411 65.77432993 C-11.63418834 61.04468175 -11.64001467 56.3150971 -11.64942932 51.58545876 C-11.66096757 45.22174428 -11.65299874 38.8583489 -11.62985229 32.49466896 C-11.6245551 30.15694713 -11.62609615 27.81919852 -11.63490295 25.48148727 C-11.64580125 22.29534288 -11.63216324 19.11022706 -11.61218262 15.92414856 C-11.6211055 14.99477834 -11.63002839 14.06540812 -11.63922167 13.10787517 C-11.58852387 8.95245856 -11.45006692 6.68556254 -9.26000214 3.06286144 C-6.26883357 0.35810363 -3.88487192 -0.01195345 0 0 Z " fill="#000000" transform="translate(11.104248046875,214.886474609375)"/>
</svg>
