<?xml version="1.0" encoding="UTF-8"?>
<svg version="1.1" xmlns="http://www.w3.org/2000/svg" width="512" height="512">
<path d="M0 0 C1.14700093 -0.00256327 1.14700093 -0.00256327 2.3171736 -0.00517833 C4.8690672 -0.00846197 7.42069549 0.00251178 9.9725647 0.01345825 C11.80593866 0.01402261 13.63931307 0.01370533 15.47268677 0.01257324 C20.44328701 0.01199969 25.41379062 0.0237545 30.38436842 0.03772116 C35.5813749 0.05022801 40.77838362 0.05139898 45.97540283 0.05377197 C55.81378008 0.05998686 65.65211286 0.07639784 75.49047053 0.09647095 C86.69232502 0.11882964 97.89418164 0.12982331 109.09605289 0.13986182 C132.13645778 0.16076403 155.1768232 0.19594022 178.2171936 0.24050903 C178.22528046 1.1512468 178.23336731 2.06198456 178.24169922 3.00032043 C178.32003735 11.63476276 178.40744217 20.26905741 178.50472069 28.90330791 C178.55440635 33.34095396 178.60073586 37.77857933 178.6390686 42.21633911 C178.67627544 46.50882648 178.72272484 50.80112818 178.77525711 55.09345436 C178.79361502 56.72104406 178.80878948 58.34867326 178.82053757 59.97632408 C178.96344026 79.11204152 180.95127473 95.28373729 194.4046936 109.92800903 C206.83302149 121.6749593 222.59286369 122.69129968 238.7953186 122.75222778 C240.27238358 122.76773463 241.74943552 122.78453861 243.22647095 122.80264282 C248.63990188 122.86006821 254.05357389 122.89260118 259.4671936 122.92800903 C277.6584436 123.08269653 277.6584436 123.08269653 296.2171936 123.24050903 C296.2171936 154.92050903 296.2171936 186.60050903 296.2171936 219.24050903 C289.2871936 219.24050903 282.3571936 219.24050903 275.2171936 219.24050903 C242.39067066 221.73079698 211.75293303 233.5974161 185.93203735 254.10379028 C181.6308353 257.48905291 179.58413167 258.49145351 174.14407349 258.51225281 C172.87374771 258.52197113 171.60342194 258.53168945 170.29460144 258.54170227 C168.88403329 258.54247251 167.47346503 258.5430615 166.06289673 258.54348755 C164.57965125 258.55114758 163.09641012 258.55969373 161.61317444 258.56906128 C158.41781637 258.58735021 155.22251696 258.59938218 152.02711487 258.60659981 C146.97684346 258.61807328 141.92670195 258.6435238 136.87649536 258.6709137 C128.89034812 258.71258021 120.90419467 258.74498709 112.91799021 258.77338785 C98.61241953 258.82434543 84.30690306 258.8864741 70.00142431 258.95872825 C64.97867651 258.98367156 59.95594582 259.00309385 54.93315887 259.01811039 C51.81150839 259.0283028 48.68988451 259.04244892 45.56825447 259.05758667 C44.11821684 259.06375074 42.66817081 259.06820524 41.21812248 259.07084465 C39.24217245 259.07464732 37.26623828 259.08501865 35.29031372 259.0957489 C33.63001759 259.10153127 33.63001759 259.10153127 31.93618011 259.10743046 C29.12120161 259.12279933 29.12120161 259.12279933 26.2171936 260.24050903 C24.72634528 264.713054 24.72634528 268.76796407 26.2171936 273.24050903 C29.29859029 274.26764126 31.43533242 274.37757823 34.66511536 274.39872742 C35.79673599 274.40851624 36.92835663 274.41830505 38.0942688 274.4283905 C39.9575885 274.4370237 39.9575885 274.4370237 41.85855103 274.4458313 C43.16596756 274.4557309 44.47338409 274.46563049 45.82041931 274.47583008 C49.40688457 274.50287556 52.99336297 274.52388705 56.5798738 274.54383206 C60.32751983 274.56569381 64.07512532 274.59308158 67.82273865 274.61988831 C74.91997641 274.66981264 82.01723668 274.71475243 89.11451846 274.75791067 C97.19426755 274.80728526 105.27397598 274.86220257 113.35368574 274.91759026 C129.97481754 275.03140632 146.59598662 275.13824619 163.2171936 275.24050903 C160.88003845 279.3824895 158.50860286 283.33247134 155.76577759 287.22634888 C149.7164418 295.86006414 145.26223631 305.00032117 140.99819946 314.62088013 C140.2171936 316.24050903 140.2171936 316.24050903 139.2171936 317.24050903 C137.79684314 317.33947324 136.37162246 317.36958735 134.9478302 317.37181091 C133.56610374 317.37782318 133.56610374 317.37782318 132.15646362 317.38395691 C131.13776184 317.38342819 130.11906006 317.38289948 129.06948853 317.38235474 C128.00287491 317.38582916 126.93626129 317.38930359 125.83732605 317.3928833 C123.51228041 317.40025602 121.18722765 317.40559328 118.86217308 317.40917397 C115.18539527 317.41631411 111.50875291 317.43196203 107.83201599 317.45051575 C97.37505958 317.50310207 86.91817588 317.5509808 76.46109009 317.56643677 C70.0731646 317.57649959 63.68557701 317.60578318 57.29778481 317.64775658 C54.85891586 317.66009781 52.41999924 317.66518218 49.98110008 317.66295815 C46.57139217 317.66061405 43.16265882 317.68270556 39.75308228 317.71047974 C38.74045319 317.70387833 37.7278241 317.69727692 36.68450928 317.69047546 C31.29996844 317.70560876 31.29996844 317.70560876 26.59385681 320.05488586 C24.53868963 323.31771803 24.61190015 325.47423863 25.2171936 329.24050903 C27.34514658 331.67604224 29.08931884 333.04153599 32.32172585 333.61177826 C34.96847821 333.77420282 37.58814132 333.8005209 40.23989868 333.78640747 C41.24524658 333.79674515 42.25059448 333.80708282 43.28640747 333.81773376 C46.60334291 333.84718819 49.91966884 333.84866154 53.23672485 333.84988403 C55.538876 333.86486384 57.84101638 333.88159056 60.1431427 333.8999939 C66.19790131 333.94370169 72.25251494 333.96367428 78.30740356 333.97872925 C84.48770737 333.99828781 90.66785431 334.04025929 96.84805298 334.08035278 C108.97105151 334.15569221 121.09401501 334.20596123 133.2171936 334.24050903 C132.67544194 338.60453375 132.13082676 342.96009512 131.46328735 347.30691528 C126.85499821 378.23988105 131.39482188 405.80187952 141.2171936 435.24050903 C122.09312237 435.31069203 102.9690774 435.36354266 83.84490395 435.39594555 C74.96456209 435.41139286 66.0843004 435.43244142 57.20401001 435.46682739 C49.46099141 435.49679528 41.7180309 435.51609955 33.97495592 435.52277452 C29.87772768 435.52667429 25.78066557 435.53579445 21.68349075 435.5576992 C17.82082713 435.57818133 13.95839683 435.58431935 10.09568405 435.57983208 C8.68404621 435.58065207 7.27239992 435.58654761 5.86080933 435.59812546 C-8.26176634 435.70819974 -18.43833347 433.21801661 -28.82577515 423.28738403 C-35.71334323 415.82707575 -40.02495957 407.00677678 -40.04286861 396.74169731 C-40.04993421 395.44481165 -40.0569998 394.14792598 -40.0642795 392.81174076 C-40.06202832 391.3795391 -40.05958184 389.94733774 -40.05696106 388.51513672 C-40.06141482 386.9882071 -40.06672932 385.46127979 -40.07282978 383.93435585 C-40.08700389 379.74107759 -40.08867319 375.54787347 -40.08823287 371.35457468 C-40.08988162 366.83087539 -40.10294928 362.30720661 -40.11442566 357.78352356 C-40.13727106 347.89289313 -40.14519588 338.00228416 -40.1502521 328.11163092 C-40.15350987 321.93407847 -40.16003286 315.75653224 -40.16725349 309.57898331 C-40.18681937 292.47008655 -40.20322347 275.36119558 -40.20613003 258.25228691 C-40.2063176 257.15753261 -40.20650517 256.0627783 -40.20669842 254.93484963 C-40.20706467 252.71557466 -40.20742837 250.4962997 -40.20778953 248.27702473 C-40.20797234 247.17539447 -40.20815516 246.07376421 -40.20834351 244.93875122 C-40.20852405 243.83577387 -40.2087046 242.73279653 -40.20889062 241.59639563 C-40.21243153 223.72811735 -40.23944873 205.85995964 -40.27684139 187.99172316 C-40.31493786 169.64006742 -40.33428761 151.28847149 -40.33458954 132.93677533 C-40.33517383 122.6356451 -40.34364764 112.33465869 -40.3725872 102.03356552 C-40.39711905 93.26113789 -40.40437182 84.48890651 -40.38933968 75.71645384 C-40.382178 71.24299325 -40.38299607 66.76992005 -40.40575027 62.29650307 C-40.42641051 58.19534724 -40.42367483 54.0948749 -40.40287543 49.99372591 C-40.39939392 48.51590363 -40.40423349 47.03803133 -40.41857987 45.56027459 C-40.53558451 32.66978109 -37.61892356 21.89959789 -28.7828064 12.24050903 C-20.89787211 4.24399549 -11.27029497 -0.0929673 0 0 Z M24.2171936 205.24050903 C23.30052694 208.74050903 23.30052694 208.74050903 24.2171936 212.24050903 C26.93244057 215.70999127 28.91348477 217.48103588 33.2171936 218.24050903 C34.82778356 218.33317663 36.4416728 218.37525594 38.05491638 218.38095093 C39.02634079 218.38666107 39.9977652 218.39237122 40.99862671 218.39825439 C42.58758759 218.39993118 42.58758759 218.39993118 44.20864868 218.40164185 C45.32940292 218.40660675 46.45015717 218.41157166 47.60487366 218.41668701 C51.31549695 218.43130163 55.0260775 218.43810936 58.73672485 218.44363403 C61.3149872 218.44938587 63.89324952 218.4551436 66.47151184 218.46090698 C71.18821589 218.47007194 75.90490286 218.47637318 80.62161428 218.47940373 C87.55322212 218.48388249 94.48463259 218.50142528 101.41618043 218.53040433 C107.4293648 218.55466705 113.44245612 218.56235004 119.4556942 218.56407928 C122.00934613 218.56710547 124.56299724 218.57513281 127.1166172 218.58826447 C130.69041499 218.60533099 134.26373286 218.60344293 137.83755493 218.59695435 C138.89078949 218.60616913 139.94402405 218.61538391 141.0291748 218.62487793 C146.87016952 218.59168074 151.06818098 218.07552008 156.2171936 215.24050903 C158.49164352 212.58698413 158.21597944 211.21744 158.0296936 207.67800903 C157.10306652 203.74381403 157.10306652 203.74381403 154.2171936 201.24050903 C151.28130205 200.26187852 149.36324265 200.10594753 146.30317688 200.08660889 C145.28961121 200.07800842 144.27604553 200.06940796 143.23176575 200.06054688 C142.12053848 200.05628693 141.00931122 200.05202698 139.8644104 200.04763794 C138.69342804 200.03946045 137.52244568 200.03128296 136.315979 200.02285767 C132.43280396 199.99800204 128.54963655 199.98133496 124.66641235 199.96707153 C123.32833156 199.96171044 121.99025084 199.95633293 120.65217018 199.95093918 C115.08557284 199.92931707 109.51897835 199.91058082 103.95234966 199.89931679 C95.9808435 199.88307884 88.00982481 199.84989806 80.0385024 199.79291594 C74.42990194 199.75419309 68.82143175 199.73468144 63.21270114 199.72939622 C59.86432856 199.72574604 56.51688884 199.71125871 53.16858482 199.68129349 C49.43139773 199.64975225 45.6954451 199.64958938 41.9581604 199.65701294 C40.85300583 199.6406076 39.74785126 199.62420227 38.60920715 199.6072998 C32.06101018 199.66059698 28.5809641 200.1716228 24.2171936 205.24050903 Z " fill="#000000" transform="translate(64.78280639648438,-0.240509033203125)"/>
<path d="M0 0 C1.72293308 1.50427338 3.431087 3.02562149 5.125 4.5625 C6.58292969 5.82513672 6.58292969 5.82513672 8.0703125 7.11328125 C34.19261574 29.98495792 49.71931497 61.22433805 54.125 95.5625 C54.89803355 111.29256143 55.02419622 127.23517178 51.125 142.5625 C50.89151855 143.55419189 50.89151855 143.55419189 50.65332031 144.56591797 C46.55783411 161.76941241 38.72608479 178.41320818 28.125 192.5625 C27.54878906 193.35914063 26.97257813 194.15578125 26.37890625 194.9765625 C4.22751383 224.22592797 -28.20368184 242.26202921 -64.17211914 248.09741211 C-80.89393357 250.19769934 -100.63926171 250.18056378 -116.875 245.5625 C-117.68936523 245.33143555 -118.50373047 245.10037109 -119.34277344 244.86230469 C-136.28041883 239.89900646 -151.56352102 232.96148832 -165.875 222.5625 C-166.67808594 221.98371094 -167.48117187 221.40492188 -168.30859375 220.80859375 C-181.96294033 210.427703 -192.77417686 198.01146119 -201.875 183.5625 C-202.29491211 182.92280273 -202.71482422 182.28310547 -203.14746094 181.62402344 C-206.2504748 176.83361285 -208.68475039 171.95402967 -210.875 166.6875 C-211.2167627 165.86813965 -211.55852539 165.0487793 -211.91064453 164.20458984 C-214.17948963 158.61652824 -216.1195362 152.99351113 -217.75 147.1875 C-217.94078125 146.51219238 -218.1315625 145.83688477 -218.328125 145.14111328 C-221.32608283 133.79829639 -222.23933049 122.51417312 -222.1875 110.8125 C-222.18258545 109.49427246 -222.1776709 108.17604492 -222.17260742 106.81787109 C-221.8047569 76.17120666 -210.57971035 44.46594066 -189.875 21.5625 C-189.15699219 20.72589844 -188.43898437 19.88929688 -187.69921875 19.02734375 C-141.80793608 -33.7109509 -55.65796337 -44.75092732 0 0 Z M-90.875 27.5625 C-93.19576526 29.68209339 -95.28533771 31.96700949 -97.375 34.3125 C-98.61435114 35.6720867 -99.85394115 37.03145567 -101.09375 38.390625 C-101.72152344 39.08478516 -102.34929687 39.77894531 -102.99609375 40.49414062 C-105.92207038 43.71514816 -108.8994833 46.88732923 -111.875 50.0625 C-113.03932953 51.30964659 -114.20339122 52.55704329 -115.3671875 53.8046875 C-117.725589 56.33164031 -120.08507351 58.85757591 -122.4453125 61.3828125 C-128.42132292 67.77819207 -134.38606181 74.18315305 -140.31225586 80.62475586 C-143.09248501 83.64346337 -145.88833049 86.64651641 -148.69921875 89.63671875 C-149.66311523 90.66345703 -149.66311523 90.66345703 -150.64648438 91.7109375 C-151.90232505 93.04742849 -153.16007174 94.38213162 -154.41992188 95.71484375 C-154.98646484 96.318125 -155.55300781 96.92140625 -156.13671875 97.54296875 C-156.64162842 98.07817139 -157.14653809 98.61337402 -157.66674805 99.16479492 C-159.69859873 101.51523848 -159.89218575 102.74810611 -160.1875 105.9375 C-160.16759635 109.5279612 -160.16759635 109.5279612 -158.3125 111.9375 C-154.89470414 114.21603057 -153.014022 114.7694511 -148.875 114.5625 C-145.79409635 112.64479467 -143.39858549 110.15163316 -140.875 107.5625 C-140.12863281 106.83933594 -139.38226563 106.11617188 -138.61328125 105.37109375 C-134.37916549 101.23761912 -130.4055022 96.95059704 -126.5546875 92.4609375 C-124.35334607 89.97290974 -121.99411485 87.67055923 -119.625 85.34375 C-117.79257513 83.47860326 -116.08146865 81.54322254 -114.375 79.5625 C-111.59744518 76.33855244 -108.67539332 73.33946281 -105.640625 70.359375 C-103.12251953 67.79670129 -100.78877295 65.08793569 -98.453125 62.359375 C-96.9856705 60.68851097 -95.45440436 59.12649554 -93.875 57.5625 C-93.87261165 58.23118638 -93.87022329 58.89987276 -93.86776257 59.58882236 C-93.8085805 75.87287561 -93.73300999 92.15676241 -93.63928509 108.44065189 C-93.59435368 116.31548282 -93.55493293 124.19026878 -93.52856445 132.06518555 C-93.50556282 138.93039674 -93.4721407 145.79546535 -93.42629844 152.66056341 C-93.40239526 156.2943049 -93.38364753 159.92790544 -93.37738609 163.56172371 C-93.37019404 167.62216369 -93.33973407 171.68211421 -93.30737305 175.74243164 C-93.30880814 176.94221146 -93.31024323 178.14199127 -93.3117218 179.37812805 C-93.24261025 185.50690683 -92.98460207 190.20695878 -89.875 195.5625 C-87.11311675 197.30684732 -85.55447835 197.59564529 -82.3125 197.4375 C-79.3132629 196.36085079 -77.88991145 195.00917819 -75.875 192.5625 C-74.85485889 189.50207668 -74.73809184 187.39617306 -74.71678162 184.19050598 C-74.7069928 183.07571365 -74.69720398 181.96092133 -74.68711853 180.81234741 C-74.68136307 179.58883575 -74.6756076 178.3653241 -74.66967773 177.10473633 C-74.65977814 175.81682693 -74.64987854 174.52891754 -74.63967896 173.20198059 C-74.61263501 169.66923292 -74.59162269 166.13647191 -74.57167697 162.60367799 C-74.54981427 158.91208603 -74.52242697 155.22053521 -74.49562073 151.52897644 C-74.44569768 144.53798691 -74.40075741 137.54697454 -74.35759836 130.55594033 C-74.30822267 122.59710753 -74.25330577 114.638316 -74.19791877 106.67952311 C-74.08410468 90.30722012 -73.97726439 73.93487929 -73.875 57.5625 C-72.28277853 59.14198021 -70.69239762 60.72331596 -69.1027832 62.30541992 C-67.77401909 63.62602669 -67.77401909 63.62602669 -66.41841125 64.97331238 C-63.67704881 67.76401392 -61.10531152 70.65568542 -58.56005859 73.62353516 C-55.54151198 77.09691928 -52.35435836 80.41233781 -49.1875 83.75 C-47.77949771 85.24046025 -46.37195014 86.73135017 -44.96484375 88.22265625 C-44.27503418 88.95371582 -43.58522461 89.68477539 -42.87451172 90.43798828 C-39.98524987 93.50787309 -37.11212868 96.59231685 -34.25 99.6875 C-33.76120361 100.21537109 -33.27240723 100.74324219 -32.76879883 101.28710938 C-30.22540713 104.04802508 -27.76445366 106.8553136 -25.375 109.75 C-23.07719629 112.33502917 -21.97192934 113.33076674 -18.875 114.5625 C-14.66657236 114.48734951 -12.60149872 114.21448603 -9.4375 111.375 C-7.57413555 108.02094398 -7.45741658 106.35396762 -7.875 102.5625 C-9.49147885 100.04021829 -9.49147885 100.04021829 -11.8125 97.8125 C-12.64394531 96.94367188 -13.47539062 96.07484375 -14.33203125 95.1796875 C-15.17121094 94.31601562 -16.01039063 93.45234375 -16.875 92.5625 C-18.25692006 91.02703327 -19.63195673 89.48534325 -21 87.9375 C-26.87766847 81.40562148 -32.91846726 75.02619355 -38.9375 68.625 C-45.84044279 61.27670606 -52.72029418 53.90625388 -59.56103516 46.5 C-60.55132496 45.4282327 -61.54315484 44.35788608 -62.53662109 43.2890625 C-65.01323666 40.61720888 -67.44448581 37.91832589 -69.8203125 35.15625 C-70.30218018 34.60541748 -70.78404785 34.05458496 -71.28051758 33.48706055 C-72.59969842 31.97559931 -73.90392487 30.45112283 -75.20703125 28.92578125 C-80.54775823 24.19497624 -84.98626422 23.50237164 -90.875 27.5625 Z " fill="#000000" transform="translate(432.875,263.4375)"/>
<path d="M0 0 C2.94490479 1.40903902 4.90321201 2.6972871 7.1015625 5.125 C7.66931396 5.74431396 8.23706543 6.36362793 8.82202148 7.00170898 C9.41700439 7.66114502 10.0119873 8.32058105 10.625 9 C11.87743898 10.36723094 13.131352 11.73311304 14.38671875 13.09765625 C15.0007959 13.76555176 15.61487305 14.43344727 16.24755859 15.12158203 C18.5841585 17.62615151 20.99673721 20.03422973 23.4375 22.4375 C26.20322485 25.16736456 28.85372299 27.91839459 31.375 30.875 C34.41430745 34.43286227 37.6736402 37.71441691 41 41 C44.87728785 44.82987375 48.56243613 48.72051309 52.09375 52.875 C54.62250461 55.69393956 57.30646246 58.33938576 60 61 C63.8484481 64.80146567 67.50831926 68.65712177 71.00390625 72.7890625 C74.38165658 76.53036717 78.01941792 80.02239401 81.64624023 83.52124023 C85.89249334 87.67748003 85.89249334 87.67748003 87 91 C78.81093115 91.09303902 70.62208636 91.16393536 62.43261814 91.20724869 C58.62912268 91.22804618 54.82599115 91.25621807 51.02270508 91.30175781 C47.34628199 91.34549865 43.67020702 91.36919592 39.99354362 91.37950897 C38.59700993 91.38685014 37.20049341 91.40118483 35.80410957 91.42292023 C24.3779563 91.59355918 16.29468125 89.92327828 7.79296875 82.06640625 C2.05520032 75.45359689 -0.12988429 68.05936733 -0.11352539 59.48730469 C-0.11367142 58.84298492 -0.11381744 58.19866516 -0.1139679 57.53482056 C-0.1132735 55.41380397 -0.10550336 53.29287617 -0.09765625 51.171875 C-0.09579039 49.69785612 -0.09436728 48.22383662 -0.09336853 46.74981689 C-0.08955661 42.87661008 -0.07973765 39.00344097 -0.06866455 35.13024902 C-0.05842193 31.17537954 -0.0538648 27.22050394 -0.04882812 23.265625 C-0.03811418 15.51039951 -0.02105369 7.75520504 0 0 Z " fill="#000000" transform="translate(261,14)"/>
</svg>
